# Blender 4.0.2
# www.blender.org
mtllib Blue_Truck.mtl
o miror_left
v -0.562500 0.812500 -0.668750
v -0.562500 0.887500 -0.587500
v -0.562500 0.887500 -0.668750
v -0.562500 0.812500 -0.587500
v -0.800000 0.812500 -0.525000
v -0.812500 0.887500 -0.587500
v -0.800000 0.887500 -0.525000
v -0.812500 0.812500 -0.587500
v -0.625000 0.962500 -0.525000
v -0.625000 0.962500 -0.668750
v -0.800000 0.962500 -0.525000
v -0.812500 0.962500 -0.587500
v -0.625000 0.812500 -0.525000
v -0.800000 0.812500 -0.525000
v -0.625000 0.812500 -0.668750
v -0.812500 0.812500 -0.587500
v -0.625000 0.812500 -0.525000
v -0.800000 0.887500 -0.525000
v -0.625000 0.887500 -0.525000
v -0.800000 0.812500 -0.525000
v -0.812500 0.812500 -0.587500
v -0.625000 0.887500 -0.668750
v -0.812500 0.887500 -0.587500
v -0.625000 0.812500 -0.668750
v -0.625000 0.962500 -0.668750
v -0.625000 0.887500 -0.668750
v -0.812500 0.887500 -0.587500
v -0.812500 0.962500 -0.587500
v -0.812500 0.962500 -0.587500
v -0.812500 0.887500 -0.587500
v -0.800000 0.887500 -0.525000
v -0.800000 0.962500 -0.525000
v -0.800000 0.962500 -0.525000
v -0.800000 0.887500 -0.525000
v -0.625000 0.887500 -0.525000
v -0.625000 0.962500 -0.525000
v -0.625000 0.962500 -0.525000
v -0.625000 0.887500 -0.525000
v -0.625000 0.887500 -0.668750
v -0.625000 0.962500 -0.668750
v -0.562500 0.887500 -0.668750
v -0.562500 0.812500 -0.668750
v -0.625000 0.812500 -0.668750
v -0.625000 0.887500 -0.668750
v -0.562500 0.887500 -0.587500
v -0.562500 0.887500 -0.668750
v -0.625000 0.887500 -0.668750
v -0.625000 0.887500 -0.525000
v -0.562500 0.812500 -0.587500
v -0.562500 0.887500 -0.587500
v -0.625000 0.887500 -0.525000
v -0.625000 0.812500 -0.525000
v -0.562500 0.812500 -0.668750
v -0.562500 0.812500 -0.587500
v -0.625000 0.812500 -0.525000
v -0.625000 0.812500 -0.668750
vn 1.0000 -0.0000 -0.0000
vn -0.9806 -0.0000 0.1961
vn -0.0000 1.0000 -0.0000
vn -0.0000 -1.0000 -0.0000
vn -0.0000 -0.0000 1.0000
vn -0.3976 -0.0000 -0.9176
vn -0.0000 -0.0000 -1.0000
vn 0.7071 -0.0000 0.7071
vt 0.195312 0.890625
vt 0.195312 0.898438
vt 0.187500 0.898438
vt 0.187500 0.890625
vt 0.390780 0.520312
vt 0.390780 0.529688
vt 0.382812 0.529688
vt 0.382812 0.520312
vt 0.001563 0.781250
vt 0.023438 0.781250
vt 0.023438 0.796875
vt 0.000000 0.786719
vt 0.375000 0.390625
vt 0.375000 0.408594
vt 0.353125 0.408594
vt 0.351562 0.400781
vt 0.139844 0.950000
vt 0.139844 0.959375
vt 0.117969 0.959375
vt 0.117969 0.950000
vt 0.481522 0.637500
vt 0.481522 0.646875
vt 0.455978 0.646875
vt 0.455978 0.637500
vt 0.455978 0.656250
vt 0.481522 0.656250
vt 0.382812 0.539062
vt 0.390780 0.539062
vt 0.117969 0.968750
vt 0.139844 0.968750
vt 0.570312 0.593750
vt 0.570312 0.585938
vt 0.585938 0.585938
vt 0.585938 0.593750
vt 0.448166 0.646875
vt 0.448166 0.637500
vt 0.460938 0.935156
vt 0.460938 0.945312
vt 0.453125 0.945312
vt 0.453125 0.927344
vt 0.367188 0.992188
vt 0.367188 1.000000
vt 0.359375 1.000000
vt 0.359375 0.992188
vt 0.382812 0.390625
vt 0.382812 0.400781
s 0
usemtl Material_0
f 1/1/1 3/2/1 2/3/1
f 1/1/1 2/3/1 4/4/1
f 5/5/2 7/6/2 6/7/2
f 5/5/2 6/7/2 8/8/2
f 11/9/3 9/10/3 10/11/3
f 11/9/3 10/11/3 12/12/3
f 15/13/4 13/14/4 14/15/4
f 15/13/4 14/15/4 16/16/4
f 17/17/5 19/18/5 18/19/5
f 17/17/5 18/19/5 20/20/5
f 21/21/6 23/22/6 22/23/6
f 21/21/6 22/23/6 24/24/6
f 25/25/6 26/23/6 27/22/6
f 25/25/6 27/22/6 28/26/6
f 29/27/2 30/7/2 31/6/2
f 29/27/2 31/6/2 32/28/2
f 33/29/5 34/19/5 35/18/5
f 33/29/5 35/18/5 36/30/5
f 37/31/1 38/32/1 39/33/1
f 37/31/1 39/33/1 40/34/1
f 41/35/7 42/36/7 43/24/7
f 41/35/7 43/24/7 44/23/7
f 45/37/3 46/38/3 47/39/3
f 45/37/3 47/39/3 48/40/3
f 49/41/8 50/42/8 51/43/8
f 49/41/8 51/43/8 52/44/8
f 53/45/4 54/46/4 55/14/4
f 53/45/4 55/14/4 56/13/4
o miror_left.001
v 0.562500 0.887500 -0.587500
v 0.562500 0.812500 -0.668750
v 0.562500 0.887500 -0.668750
v 0.562500 0.812500 -0.587500
v 0.812500 0.887500 -0.587500
v 0.800000 0.812500 -0.525000
v 0.800000 0.887500 -0.525000
v 0.812500 0.812500 -0.587500
v 0.625000 0.962500 -0.668750
v 0.625000 0.962500 -0.525000
v 0.800000 0.962500 -0.525000
v 0.812500 0.962500 -0.587500
v 0.800000 0.812500 -0.525000
v 0.625000 0.812500 -0.525000
v 0.625000 0.812500 -0.668750
v 0.812500 0.812500 -0.587500
v 0.800000 0.887500 -0.525000
v 0.625000 0.812500 -0.525000
v 0.625000 0.887500 -0.525000
v 0.800000 0.812500 -0.525000
v 0.625000 0.887500 -0.668750
v 0.812500 0.812500 -0.587500
v 0.812500 0.887500 -0.587500
v 0.625000 0.812500 -0.668750
v 0.625000 0.887500 -0.668750
v 0.625000 0.962500 -0.668750
v 0.812500 0.887500 -0.587500
v 0.812500 0.962500 -0.587500
v 0.812500 0.887500 -0.587500
v 0.812500 0.962500 -0.587500
v 0.800000 0.887500 -0.525000
v 0.800000 0.962500 -0.525000
v 0.800000 0.887500 -0.525000
v 0.800000 0.962500 -0.525000
v 0.625000 0.887500 -0.525000
v 0.625000 0.962500 -0.525000
v 0.625000 0.887500 -0.525000
v 0.625000 0.962500 -0.525000
v 0.625000 0.887500 -0.668750
v 0.625000 0.962500 -0.668750
v 0.562500 0.812500 -0.668750
v 0.562500 0.887500 -0.668750
v 0.625000 0.812500 -0.668750
v 0.625000 0.887500 -0.668750
v 0.562500 0.887500 -0.668750
v 0.562500 0.887500 -0.587500
v 0.625000 0.887500 -0.668750
v 0.625000 0.887500 -0.525000
v 0.562500 0.887500 -0.587500
v 0.562500 0.812500 -0.587500
v 0.625000 0.887500 -0.525000
v 0.625000 0.812500 -0.525000
v 0.562500 0.812500 -0.587500
v 0.562500 0.812500 -0.668750
v 0.625000 0.812500 -0.525000
v 0.625000 0.812500 -0.668750
vn -1.0000 -0.0000 -0.0000
vn 0.9806 -0.0000 0.1961
vn -0.0000 1.0000 -0.0000
vn -0.0000 -1.0000 -0.0000
vn -0.0000 -0.0000 1.0000
vn 0.3976 -0.0000 -0.9176
vn -0.0000 -0.0000 -1.0000
vn -0.7071 -0.0000 0.7071
vt 0.375000 0.757812
vt 0.367188 0.757812
vt 0.367188 0.750000
vt 0.375000 0.750000
vt 0.398438 0.498438
vt 0.390470 0.498438
vt 0.390470 0.489062
vt 0.398438 0.489062
vt 0.000000 0.773438
vt 0.000000 0.757812
vt 0.021875 0.757812
vt 0.023438 0.763281
vt 0.615625 0.635156
vt 0.593750 0.635156
vt 0.593750 0.617188
vt 0.617188 0.627344
vt 0.139844 0.928125
vt 0.117969 0.928125
vt 0.117969 0.918750
vt 0.139844 0.918750
vt 0.614334 0.662500
vt 0.588791 0.662500
vt 0.588791 0.653125
vt 0.614334 0.653125
vt 0.614334 0.671875
vt 0.588791 0.671875
vt 0.398438 0.507812
vt 0.390470 0.507812
vt 0.139844 0.937500
vt 0.117969 0.937500
vt 0.585938 0.875000
vt 0.601562 0.875000
vt 0.601562 0.882812
vt 0.585938 0.882812
vt 0.622147 0.653125
vt 0.622147 0.662500
vt 0.460938 0.914062
vt 0.453125 0.914062
vt 0.453125 0.903906
vt 0.460938 0.896094
vt 0.414062 0.890625
vt 0.406250 0.890625
vt 0.406250 0.882812
vt 0.414062 0.882812
vt 0.585938 0.627344
vt 0.585938 0.617188
s 0
usemtl Material_0
f 57/47/9 59/48/9 58/49/9
f 57/47/9 58/49/9 60/50/9
f 61/51/10 63/52/10 62/53/10
f 61/51/10 62/53/10 64/54/10
f 65/55/11 66/56/11 67/57/11
f 65/55/11 67/57/11 68/58/11
f 69/59/12 70/60/12 71/61/12
f 69/59/12 71/61/12 72/62/12
f 73/63/13 75/64/13 74/65/13
f 73/63/13 74/65/13 76/66/13
f 77/67/14 79/68/14 78/69/14
f 77/67/14 78/69/14 80/70/14
f 83/68/14 81/67/14 82/71/14
f 83/68/14 82/71/14 84/72/14
f 87/52/10 85/51/10 86/73/10
f 87/52/10 86/73/10 88/74/10
f 91/64/13 89/63/13 90/75/13
f 91/64/13 90/75/13 92/76/13
f 95/77/9 93/78/9 94/79/9
f 95/77/9 94/79/9 96/80/9
f 99/70/15 97/81/15 98/82/15
f 99/70/15 98/82/15 100/67/15
f 103/83/11 101/84/11 102/85/11
f 103/83/11 102/85/11 104/86/11
f 107/87/16 105/88/16 106/89/16
f 107/87/16 106/89/16 108/90/16
f 111/60/12 109/91/12 110/92/12
f 111/60/12 110/92/12 112/61/12
o body
v 0.562500 0.843750 -1.156250
v 0.562500 0.625000 -1.375000
v 0.562500 0.625000 -1.156250
v 0.562500 0.750000 -1.375000
v -0.562500 0.750000 -1.375000
v -0.562500 0.625000 -1.156250
v -0.562500 0.625000 -1.375000
v -0.562500 0.843750 -1.156250
v -0.562500 0.843750 -1.156250
v -0.281250 0.750000 -1.437500
v -0.281250 0.843750 -1.156250
v -0.562500 0.750000 -1.375000
v -0.562500 0.375000 -1.375000
v -0.281250 0.375000 -1.218750
v -0.281250 0.375000 -1.437500
v -0.562500 0.375000 -1.218750
v -0.562500 0.625000 1.000000
v -0.281250 0.875000 1.000000
v -0.281250 0.625000 1.000000
v -0.562500 0.875000 1.000000
v -0.562500 0.750000 -1.375000
v -0.281250 0.625000 -1.437500
v -0.281250 0.750000 -1.437500
v -0.562500 0.625000 -1.375000
v -0.562500 0.375000 -0.539062
v -0.281250 0.375000 0.113281
v -0.281250 0.375000 -0.539062
v -0.562500 0.375000 0.113281
v 0.562500 0.875000 0.238281
v 0.562500 0.625000 -0.601562
v 0.562500 0.625000 0.175781
v 0.562500 0.875000 -0.726562
v -0.562500 0.875000 1.000000
v -0.421875 0.875000 0.890625
v -0.281250 0.875000 1.000000
v -0.562500 0.875000 0.890625
v -0.562500 0.875000 0.890625
v -0.562500 0.625000 1.000000
v -0.562500 0.625000 0.765625
v -0.562500 0.875000 1.000000
v -0.562500 0.375000 0.828125
v -0.281250 0.375000 1.000000
v -0.281250 0.375000 0.828125
v -0.562500 0.375000 1.000000
v 0.562500 0.875000 1.000000
v 0.562500 0.625000 0.765625
v 0.562500 0.625000 1.000000
v 0.562500 0.875000 0.890625
v -0.562500 0.875000 -0.726562
v -0.562500 0.625000 0.175781
v -0.562500 0.625000 -0.601562
v -0.562500 0.875000 0.238281
v -0.562500 1.312500 0.238281
v -0.281250 1.312500 -0.539062
v -0.281250 1.312500 0.238281
v -0.562500 1.312500 -0.539062
v -0.562500 0.875000 -0.726562
v -0.281250 0.843750 -1.156250
v -0.281250 0.875000 -0.726562
v -0.562500 0.843750 -1.156250
v 0.562500 0.875000 -0.726562
v 0.562500 0.625000 -1.156250
v 0.562500 0.625000 -0.601562
v 0.562500 0.843750 -1.156250
v -0.562500 0.843750 -1.156250
v -0.562500 0.625000 -0.601562
v -0.562500 0.625000 -1.156250
v -0.562500 0.875000 -0.726562
v -0.562500 0.875000 0.890625
v -0.421875 0.875000 0.238281
v -0.421875 0.875000 0.890625
v -0.562500 0.875000 0.238281
v -0.562500 0.875000 0.238281
v -0.562500 0.625000 0.765625
v -0.562500 0.625000 0.175781
v -0.562500 0.875000 0.890625
v 0.562500 0.875000 0.890625
v 0.562500 0.625000 0.175781
v 0.562500 0.625000 0.765625
v 0.562500 0.875000 0.238281
v -0.562500 0.375000 -1.218750
v -0.562500 0.625000 -1.156250
v -0.562500 0.625000 -1.375000
v -0.562500 0.375000 -1.375000
v -0.562500 0.625000 -1.375000
v -0.281250 0.375000 -1.437500
v -0.281250 0.625000 -1.437500
v -0.562500 0.375000 -1.375000
v 0.562500 0.375000 -1.375000
v 0.562500 0.625000 -1.375000
v 0.562500 0.625000 -1.156250
v 0.562500 0.375000 -1.218750
v 0.562500 0.375000 -0.539062
v 0.562500 0.625000 -0.601562
v 0.562500 0.625000 0.175781
v 0.562500 0.375000 0.113281
v 0.562500 0.375000 0.828125
v 0.562500 0.625000 0.765625
v 0.562500 0.625000 1.000000
v 0.562500 0.375000 1.000000
v -0.562500 0.375000 1.000000
v -0.281250 0.625000 1.000000
v -0.281250 0.375000 1.000000
v -0.562500 0.625000 1.000000
v -0.562500 0.375000 1.000000
v -0.562500 0.625000 1.000000
v -0.562500 0.625000 0.765625
v -0.562500 0.375000 0.828125
v -0.562500 0.375000 0.113281
v -0.562500 0.625000 0.175781
v -0.562500 0.625000 -0.601562
v -0.562500 0.375000 -0.539062
v -0.281250 0.750000 -1.437500
v 0.281250 0.625000 -1.437500
v 0.281250 0.750000 -1.437500
v -0.281250 0.625000 -1.437500
v -0.281250 0.843750 -1.156250
v 0.281250 0.750000 -1.437500
v 0.281250 0.843750 -1.156250
v -0.281250 0.750000 -1.437500
v -0.281250 0.875000 -0.726562
v 0.281250 0.843750 -1.156250
v 0.281250 0.875000 -0.726562
v -0.281250 0.843750 -1.156250
v -0.281250 1.312500 0.238281
v 0.281250 1.312500 -0.539062
v 0.281250 1.312500 0.238281
v -0.281250 1.312500 -0.539062
v -0.421875 0.687500 0.890625
v 0.421875 0.687500 0.238281
v 0.421875 0.687500 0.890625
v -0.421875 0.687500 0.238281
v -0.281250 0.875000 1.000000
v 0.421875 0.875000 0.890625
v 0.281250 0.875000 1.000000
v -0.421875 0.875000 0.890625
v -0.281250 0.625000 1.000000
v 0.281250 0.875000 1.000000
v 0.281250 0.625000 1.000000
v -0.281250 0.875000 1.000000
v -0.281250 0.375000 1.000000
v 0.281250 0.625000 1.000000
v 0.281250 0.375000 1.000000
v -0.281250 0.625000 1.000000
v -0.281250 0.375000 0.828125
v 0.281250 0.375000 1.000000
v 0.281250 0.375000 0.828125
v -0.281250 0.375000 1.000000
v -0.281250 0.375000 0.113281
v 0.281250 0.375000 0.828125
v 0.281250 0.375000 0.113281
v -0.281250 0.375000 0.828125
v -0.281250 0.375000 -0.539062
v 0.281250 0.375000 0.113281
v 0.281250 0.375000 -0.539062
v -0.281250 0.375000 0.113281
v -0.281250 0.375000 -1.218750
v 0.281250 0.375000 -0.539062
v 0.281250 0.375000 -1.218750
v -0.281250 0.375000 -0.539062
v -0.281250 0.375000 -1.437500
v 0.281250 0.375000 -1.218750
v 0.281250 0.375000 -1.437500
v -0.281250 0.375000 -1.218750
v -0.281250 0.625000 -1.437500
v 0.281250 0.375000 -1.437500
v 0.281250 0.625000 -1.437500
v -0.281250 0.375000 -1.437500
v 0.562500 0.625000 -1.375000
v 0.281250 0.625000 -1.437500
v 0.281250 0.750000 -1.437500
v 0.562500 0.750000 -1.375000
v 0.562500 0.750000 -1.375000
v 0.281250 0.750000 -1.437500
v 0.281250 0.843750 -1.156250
v 0.562500 0.843750 -1.156250
v 0.562500 0.843750 -1.156250
v 0.281250 0.843750 -1.156250
v 0.281250 0.875000 -0.726562
v 0.562500 0.875000 -0.726562
v 0.562500 1.312500 -0.539062
v 0.281250 1.312500 -0.539062
v 0.281250 1.312500 0.238281
v 0.562500 1.312500 0.238281
v 0.562500 0.875000 0.238281
v 0.421875 0.875000 0.238281
v 0.421875 0.875000 0.890625
v 0.562500 0.875000 0.890625
v 0.562500 0.875000 0.890625
v 0.421875 0.875000 0.890625
v 0.281250 0.875000 1.000000
v 0.562500 0.875000 1.000000
v 0.562500 0.875000 1.000000
v 0.281250 0.875000 1.000000
v 0.281250 0.625000 1.000000
v 0.562500 0.625000 1.000000
v 0.562500 0.625000 1.000000
v 0.281250 0.625000 1.000000
v 0.281250 0.375000 1.000000
v 0.562500 0.375000 1.000000
v 0.562500 0.375000 1.000000
v 0.281250 0.375000 1.000000
v 0.281250 0.375000 0.828125
v 0.562500 0.375000 0.828125
v 0.562500 0.375000 0.113281
v 0.281250 0.375000 0.113281
v 0.281250 0.375000 -0.539062
v 0.562500 0.375000 -0.539062
v 0.562500 0.375000 -1.218750
v 0.281250 0.375000 -1.218750
v 0.281250 0.375000 -1.437500
v 0.562500 0.375000 -1.375000
v 0.562500 0.375000 -1.375000
v 0.281250 0.375000 -1.437500
v 0.281250 0.625000 -1.437500
v 0.562500 0.625000 -1.375000
v 0.281250 0.625000 0.765625
v 0.281250 0.625000 0.175781
v 0.562500 0.625000 0.765625
v 0.562500 0.625000 0.175781
v 0.281250 0.625000 0.175781
v 0.281250 0.625000 0.765625
v 0.281250 0.375000 0.113281
v 0.281250 0.375000 0.828125
v 0.281250 0.375000 0.828125
v 0.281250 0.625000 0.765625
v 0.562500 0.375000 0.828125
v 0.562500 0.625000 0.765625
v 0.281250 0.625000 0.175781
v 0.281250 0.375000 0.113281
v 0.562500 0.625000 0.175781
v 0.562500 0.375000 0.113281
v 0.351562 0.625000 -0.601562
v 0.351562 0.625000 -1.156250
v 0.562500 0.625000 -0.601562
v 0.562500 0.625000 -1.156250
v -0.281250 0.625000 -1.156250
v -0.281250 0.625000 -0.601562
v -0.562500 0.625000 -1.156250
v -0.562500 0.625000 -0.601562
v -0.281250 0.625000 0.175781
v -0.281250 0.625000 0.765625
v -0.562500 0.625000 0.175781
v -0.562500 0.625000 0.765625
v 0.351562 0.625000 -1.156250
v 0.351562 0.625000 -0.601562
v 0.281250 0.375000 -1.218750
v 0.281250 0.375000 -0.539062
v 0.281250 0.375000 -0.539062
v 0.351562 0.625000 -0.601562
v 0.562500 0.375000 -0.539062
v 0.562500 0.625000 -0.601562
v -0.281250 0.625000 -0.601562
v -0.281250 0.625000 -1.156250
v -0.281250 0.375000 -0.539062
v -0.281250 0.375000 -1.218750
v 0.562500 0.375000 -1.218750
v 0.562500 0.625000 -1.156250
v 0.281250 0.375000 -1.218750
v 0.351562 0.625000 -1.156250
v -0.281250 0.375000 -1.218750
v -0.281250 0.625000 -1.156250
v -0.562500 0.375000 -1.218750
v -0.562500 0.625000 -1.156250
v -0.562500 0.375000 -0.539062
v -0.562500 0.625000 -0.601562
v -0.281250 0.375000 -0.539062
v -0.281250 0.625000 -0.601562
v -0.281250 0.375000 0.113281
v -0.281250 0.375000 0.828125
v -0.281250 0.625000 0.175781
v -0.281250 0.625000 0.765625
v -0.562500 0.625000 0.175781
v -0.562500 0.375000 0.113281
v -0.281250 0.625000 0.175781
v -0.281250 0.375000 0.113281
v -0.281250 0.625000 0.765625
v -0.281250 0.375000 0.828125
v -0.562500 0.625000 0.765625
v -0.562500 0.375000 0.828125
v 0.281250 1.312500 -0.539062
v 0.562500 1.312500 -0.539062
v 0.562500 0.875000 -0.726562
v 0.281250 0.875000 -0.726562
v 0.562500 1.312500 0.238281
v 0.281250 1.312500 0.238281
v 0.421875 0.875000 0.238281
v 0.562500 0.875000 0.238281
v 0.562500 1.312500 -0.539062
v 0.562500 1.312500 0.238281
v 0.562500 0.875000 0.238281
v 0.562500 0.875000 -0.726562
v 0.281250 1.312500 0.238281
v -0.281250 1.312500 0.238281
v -0.421875 0.875000 0.238281
v 0.421875 0.875000 0.238281
v -0.281250 1.312500 -0.539062
v 0.281250 1.312500 -0.539062
v 0.281250 0.875000 -0.726562
v -0.281250 0.875000 -0.726562
v -0.281250 1.312500 0.238281
v -0.562500 1.312500 0.238281
v -0.562500 0.875000 0.238281
v -0.421875 0.875000 0.238281
v -0.562500 1.312500 -0.539062
v -0.281250 1.312500 -0.539062
v -0.281250 0.875000 -0.726562
v -0.562500 0.875000 -0.726562
v -0.562500 1.312500 0.238281
v -0.562500 1.312500 -0.539062
v -0.562500 0.875000 -0.726562
v -0.562500 0.875000 0.238281
v 0.421875 0.687500 0.890625
v -0.421875 0.687500 0.890625
v -0.421875 0.875000 0.890625
v 0.421875 0.875000 0.890625
v 0.421875 0.687500 0.238281
v 0.421875 0.687500 0.890625
v 0.421875 0.875000 0.890625
v 0.421875 0.875000 0.238281
v -0.421875 0.687500 0.238281
v 0.421875 0.687500 0.238281
v 0.421875 0.875000 0.238281
v -0.421875 0.875000 0.238281
v -0.421875 0.687500 0.890625
v -0.421875 0.687500 0.238281
v -0.421875 0.875000 0.238281
v -0.421875 0.875000 0.890625
vn 1.0000 -0.0000 -0.0000
vn -1.0000 -0.0000 -0.0000
vn -0.0000 0.9487 -0.3162
vn -0.0000 -1.0000 -0.0000
vn -0.0000 -0.0000 1.0000
vn -0.2169 -0.0000 -0.9762
vn -0.0000 1.0000 -0.0000
vn -0.0000 0.9974 -0.0725
vn -0.0000 -0.0000 -1.0000
vn 0.2169 -0.0000 -0.9762
vn 0.0701 0.9463 -0.3154
vn 0.0701 0.9463 -0.3155
vn -0.0000 -0.2425 -0.9701
vn -0.0000 -0.2425 0.9701
vn 0.9627 -0.2707 -0.0000
vn -0.0000 0.3939 -0.9191
vt 0.410156 0.937500
vt 0.417969 0.914062
vt 0.445312 0.914062
vt 0.445312 0.929688
vt 0.117188 0.789062
vt 0.117188 0.773438
vt 0.144531 0.773438
vt 0.152344 0.796875
vt 0.144545 0.578441
vt 0.109389 0.578441
vt 0.109389 0.534768
vt 0.144545 0.542455
vt 0.000000 0.703125
vt 0.035156 0.695312
vt 0.035156 0.722656
vt 0.000000 0.722656
vt 0.328125 0.843750
vt 0.363281 0.843750
vt 0.363281 0.875000
vt 0.328125 0.875000
vt 0.520389 1.000000
vt 0.484375 1.000000
vt 0.484375 0.984375
vt 0.520389 0.984375
vt 0.000000 0.807617
vt 0.035156 0.807617
vt 0.035156 0.889160
vt 0.000000 0.889160
vt 0.243652 0.945312
vt 0.251465 0.914062
vt 0.348633 0.914062
vt 0.364258 0.945312
vt 0.296875 0.639160
vt 0.332031 0.639160
vt 0.314453 0.652832
vt 0.296875 0.652832
vt 0.400391 0.804688
vt 0.384766 0.773438
vt 0.414062 0.773438
vt 0.414062 0.804688
vt 0.000000 0.978516
vt 0.035156 0.978516
vt 0.035156 1.000000
vt 0.000000 1.000000
vt 0.148438 0.945312
vt 0.148438 0.914062
vt 0.177734 0.914062
vt 0.162109 0.945312
vt 0.198242 0.804688
vt 0.213867 0.773438
vt 0.311035 0.773438
vt 0.318848 0.804688
vt 0.148438 0.637207
vt 0.183594 0.637207
vt 0.183594 0.734375
vt 0.148438 0.734375
vt 0.144545 0.625000
vt 0.109389 0.625000
vt 0.314453 0.734375
vt 0.296875 0.734375
vt 0.136719 0.742188
vt 0.117188 0.742188
vt 0.484375 0.953125
vt 0.520389 0.953125
vt 0.445312 0.882812
vt 0.425781 0.882812
vt 0.340820 0.882812
vt 0.259277 0.882812
vt 0.169922 0.882812
vt 0.148438 0.882812
vt 0.328125 0.812500
vt 0.363281 0.812500
vt 0.414062 0.742188
vt 0.392578 0.742188
vt 0.303223 0.742188
vt 0.221680 0.742188
vt 0.414062 1.000000
vt 0.414062 0.984375
vt 0.039076 0.578441
vt 0.039076 0.534768
vt 0.039076 0.625000
vt 0.253906 0.637207
vt 0.253906 0.734375
vt 0.304688 0.546875
vt 0.414062 0.546875
vt 0.414062 0.625000
vt 0.304688 0.625000
vt 0.402344 0.639160
vt 0.419922 0.652832
vt 0.433594 0.843750
vt 0.433594 0.875000
vt 0.433594 0.812500
vt 0.105469 0.978516
vt 0.105469 1.000000
vt 0.105469 0.889160
vt 0.105469 0.807617
vt 0.105469 0.722656
vt 0.105469 0.695312
vt 0.414062 0.953125
vt 0.378048 0.984375
vt 0.378048 1.000000
vt 0.003892 0.542455
vt 0.039076 0.578442
vt 0.003948 0.578442
vt 0.003920 0.578441
vt 0.003920 0.625000
vt 0.289062 0.734375
vt 0.289062 0.637207
vt 0.437500 0.734375
vt 0.419922 0.734375
vt 0.437500 0.652832
vt 0.437500 0.639160
vt 0.468750 0.875000
vt 0.468750 0.843750
vt 0.468750 0.812500
vt 0.140625 1.000000
vt 0.140625 0.978516
vt 0.140625 0.889160
vt 0.140625 0.807617
vt 0.140625 0.722656
vt 0.140625 0.703125
vt 0.378048 0.953125
vt 0.140625 0.523438
vt 0.101562 0.523438
vt 0.101562 0.453125
vt 0.140625 0.453125
vt 0.091553 0.656250
vt 0.083740 0.687500
vt 0.010010 0.687500
vt 0.002197 0.656250
vt 0.203125 0.867188
vt 0.242188 0.867188
vt 0.242188 0.898438
vt 0.203125 0.898438
vt 0.140625 0.687500
vt 0.101562 0.687500
vt 0.101562 0.656250
vt 0.140625 0.656250
vt 0.023438 0.968750
vt 0.000000 0.968750
vt 0.000000 0.898438
vt 0.023438 0.898438
vt 0.492188 0.484375
vt 0.531250 0.484375
vt 0.531250 0.554688
vt 0.492188 0.554688
vt 0.500000 0.585938
vt 0.539062 0.585938
vt 0.539062 0.656250
vt 0.500000 0.656250
vt 0.562012 0.835938
vt 0.554199 0.867188
vt 0.484863 0.867188
vt 0.477051 0.835938
vt 0.541016 0.546875
vt 0.576172 0.546875
vt 0.567383 0.578125
vt 0.541016 0.578125
vt 0.233887 0.968750
vt 0.226074 1.000000
vt 0.156738 1.000000
vt 0.148926 0.968750
vt 0.429688 0.437500
vt 0.468750 0.437500
vt 0.468750 0.468750
vt 0.438477 0.468750
vt 0.148438 0.429688
vt 0.187500 0.429688
vt 0.187500 0.460938
vt 0.148438 0.460938
vt 0.195312 0.429688
vt 0.234375 0.429688
vt 0.234375 0.460938
vt 0.195312 0.460938
vt 0.010010 0.523438
vt 0.002197 0.492188
vt 0.091553 0.492188
vt 0.083740 0.523438
vt 0.281250 0.460938
vt 0.242188 0.460938
vt 0.242188 0.429688
vt 0.281250 0.429688
vt 0.328125 0.460938
vt 0.289062 0.460938
vt 0.289062 0.429688
vt 0.328125 0.429688
vt 0.457031 0.804688
vt 0.421875 0.804688
vt 0.421875 0.745189
vt 0.457031 0.745189
vt 0.296875 0.625000
vt 0.261719 0.625000
vt 0.279297 0.570312
vt 0.296875 0.570312
vt 0.340820 1.000000
vt 0.243652 1.000000
vt 0.191406 0.625000
vt 0.173828 0.570312
vt 0.527344 0.804688
vt 0.527344 0.745189
vt 0.156250 0.625000
vt 0.156250 0.570312
vt 0.562500 0.804688
vt 0.562500 0.745189
vt 0.318848 0.859375
vt 0.221680 0.859375
vt 0.523438 0.710938
vt 0.632812 0.710938
vt 0.632812 0.734375
vt 0.523438 0.734375
vt 0.000000 0.460938
vt 0.078125 0.460938
vt 0.078125 0.484375
vt 0.000000 0.484375
vt 0.173828 0.546875
vt 0.279297 0.546875
vt 0.523438 0.679688
vt 0.601562 0.679688
vt 0.601562 0.703125
vt 0.523438 0.703125
s 0
usemtl Material_0
f 113/93/17 115/94/17 114/95/17
f 113/93/17 114/95/17 116/96/17
f 117/97/18 119/98/18 118/99/18
f 117/97/18 118/99/18 120/100/18
f 121/101/19 123/102/19 122/103/19
s 1
f 121/101/19 122/103/19 124/104/19
s 0
f 125/105/20 127/106/20 126/107/20
f 125/105/20 126/107/20 128/108/20
f 129/109/21 131/110/21 130/111/21
f 129/109/21 130/111/21 132/112/21
f 133/113/22 135/114/22 134/115/22
f 133/113/22 134/115/22 136/116/22
f 137/117/20 139/118/20 138/119/20
f 137/117/20 138/119/20 140/120/20
f 141/121/17 143/122/17 142/123/17
f 141/121/17 142/123/17 144/124/17
f 145/125/23 147/126/23 146/127/23
f 145/125/23 146/127/23 148/128/23
f 149/129/18 151/130/18 150/131/18
f 149/129/18 150/131/18 152/132/18
f 153/133/20 155/134/20 154/135/20
f 153/133/20 154/135/20 156/136/20
f 157/137/17 159/138/17 158/139/17
f 157/137/17 158/139/17 160/140/17
f 161/141/18 163/142/18 162/143/18
f 161/141/18 162/143/18 164/144/18
f 165/145/23 167/146/23 166/147/23
f 165/145/23 166/147/23 168/148/23
f 169/149/24 171/150/24 170/102/24
f 169/149/24 170/102/24 172/101/24
f 173/124/17 175/123/17 174/94/17
f 173/124/17 174/94/17 176/93/17
f 177/100/18 179/99/18 178/142/18
f 177/100/18 178/142/18 180/141/18
f 181/128/23 183/127/23 182/151/23
f 181/128/23 182/151/23 184/152/23
f 185/144/18 187/143/18 186/130/18
f 185/144/18 186/130/18 188/129/18
f 189/140/17 191/139/17 190/122/17
f 189/140/17 190/122/17 192/121/17
f 193/153/18 194/99/18 195/98/18
f 193/153/18 195/98/18 196/154/18
f 197/116/22 199/115/22 198/155/22
f 197/116/22 198/155/22 200/156/22
f 201/157/17 202/95/17 203/94/17
f 201/157/17 203/94/17 204/158/17
f 205/159/17 206/123/17 207/122/17
f 205/159/17 207/122/17 208/160/17
f 209/161/17 210/139/17 211/138/17
f 209/161/17 211/138/17 212/162/17
f 213/163/21 215/164/21 214/110/21
f 213/163/21 214/110/21 216/109/21
f 217/165/18 218/131/18 219/130/18
f 217/165/18 219/130/18 220/166/18
f 221/167/18 222/143/18 223/142/18
f 221/167/18 223/142/18 224/168/18
f 225/114/25 227/169/25 226/170/25
f 225/114/25 226/170/25 228/115/25
f 229/102/19 231/171/19 230/172/19
f 229/102/19 230/172/19 232/103/19
f 233/150/24 235/173/24 234/171/24
f 233/150/24 234/171/24 236/102/24
f 237/146/23 239/174/23 238/175/23
f 237/146/23 238/175/23 240/147/23
f 241/176/23 243/177/23 242/178/23
f 241/176/23 242/178/23 244/179/23
f 245/126/23 247/180/23 246/181/23
f 245/126/23 246/181/23 248/127/23
f 249/110/21 251/182/21 250/183/21
f 249/110/21 250/183/21 252/111/21
f 253/164/21 255/184/21 254/182/21
f 253/164/21 254/182/21 256/110/21
f 257/134/20 259/185/20 258/186/20
f 257/134/20 258/186/20 260/135/20
f 261/119/20 263/187/20 262/185/20
f 261/119/20 262/185/20 264/134/20
f 265/118/20 267/188/20 266/187/20
f 265/118/20 266/187/20 268/119/20
f 269/107/20 271/189/20 270/188/20
f 269/107/20 270/188/20 272/118/20
f 273/106/20 275/190/20 274/189/20
f 273/106/20 274/189/20 276/107/20
f 277/115/25 279/170/25 278/191/25
f 277/115/25 278/191/25 280/155/25
f 281/192/26 282/170/26 283/169/26
f 281/192/26 283/169/26 284/193/26
f 285/194/27 286/172/27 287/195/27
s 1
f 285/194/28 287/195/28 288/196/28
s 0
f 289/197/24 290/171/24 291/173/24
f 289/197/24 291/173/24 292/198/24
f 293/199/23 294/175/23 295/174/23
f 293/199/23 295/174/23 296/200/23
f 297/201/23 298/202/23 299/181/23
f 297/201/23 299/181/23 300/203/23
f 301/203/23 302/181/23 303/180/23
f 301/203/23 303/180/23 304/204/23
f 305/205/21 306/183/21 307/182/21
f 305/205/21 307/182/21 308/206/21
f 309/206/21 310/182/21 311/184/21
f 309/206/21 311/184/21 312/207/21
f 313/208/20 314/186/20 315/185/20
f 313/208/20 315/185/20 316/209/20
f 317/210/20 318/187/20 319/188/20
f 317/210/20 319/188/20 320/211/20
f 321/212/20 322/189/20 323/190/20
f 321/212/20 323/190/20 324/213/20
f 325/214/26 326/191/26 327/170/26
f 325/214/26 327/170/26 328/192/26
f 331/215/20 329/216/20 330/217/20
f 331/215/20 330/217/20 332/218/20
f 335/219/17 333/220/17 334/221/17
f 335/219/17 334/221/17 336/222/17
f 339/223/29 337/224/29 338/225/29
f 339/223/29 338/225/29 340/226/29
f 343/227/30 341/228/30 342/229/30
f 343/227/30 342/229/30 344/230/30
f 347/231/20 345/232/20 346/233/20
f 347/231/20 346/233/20 348/234/20
f 351/235/20 349/236/20 350/237/20
f 351/235/20 350/237/20 352/238/20
f 355/239/20 353/240/20 354/241/20
f 355/239/20 354/241/20 356/242/20
f 359/243/31 357/244/31 358/245/31
f 359/243/31 358/245/31 360/246/31
f 363/247/29 361/248/29 362/249/29
f 363/247/29 362/249/29 364/250/29
f 367/251/18 365/252/18 366/253/18
f 367/251/18 366/253/18 368/254/18
f 371/255/30 369/256/30 370/257/30
f 371/255/30 370/257/30 372/258/30
f 375/259/30 373/260/30 374/261/30
f 375/259/30 374/261/30 376/262/30
f 379/263/29 377/264/29 378/265/29
f 379/263/29 378/265/29 380/266/29
f 383/267/18 381/268/18 382/269/18
f 383/267/18 382/269/18 384/270/18
f 387/271/30 385/272/30 386/273/30
f 387/271/30 386/273/30 388/274/30
f 391/275/29 389/276/29 390/277/29
f 391/275/29 390/277/29 392/278/29
f 393/279/32 394/280/32 395/281/32
f 393/279/32 395/281/32 396/282/32
f 397/283/21 398/284/21 399/285/21
f 397/283/21 399/285/21 400/286/21
f 401/287/17 402/288/17 403/121/17
f 401/287/17 403/121/17 404/124/17
f 405/284/21 406/289/21 407/290/21
f 405/284/21 407/290/21 408/285/21
f 409/291/32 410/279/32 411/282/32
f 409/291/32 411/282/32 412/292/32
f 413/289/21 414/293/21 415/294/21
f 413/289/21 415/294/21 416/290/21
f 417/295/32 418/291/32 419/292/32
f 417/295/32 419/292/32 420/296/32
f 421/297/18 422/298/18 423/141/18
f 421/297/18 423/141/18 424/144/18
f 425/299/25 426/300/25 427/301/25
f 425/299/25 427/301/25 428/302/25
f 429/303/18 430/304/18 431/305/18
f 429/303/18 431/305/18 432/306/18
f 433/307/21 434/308/21 435/285/21
f 433/307/21 435/285/21 436/290/21
f 437/309/17 438/310/17 439/311/17
f 437/309/17 439/311/17 440/312/17
o cylinder
v -0.312500 0.562500 -0.758502
v -0.312500 0.397748 -0.593750
v -0.312500 0.281250 -0.875000
v -0.312500 0.397748 -0.593750
v -0.312500 0.562500 -0.758502
v -0.562500 0.562500 -0.758502
v -0.562500 0.397748 -0.593750
v -0.500000 0.347524 -0.715000
v -0.500000 0.441250 -0.808726
v -0.500000 0.281250 -0.875000
v -0.312500 0.562500 -0.991498
v -0.312500 0.562500 -0.758502
v -0.312500 0.281250 -0.875000
v -0.312500 0.562500 -0.758502
v -0.312500 0.562500 -0.991498
v -0.562500 0.562500 -0.991498
v -0.562500 0.562500 -0.758502
v -0.500000 0.441250 -0.808726
v -0.500000 0.441250 -0.941274
v -0.500000 0.281250 -0.875000
v -0.312500 0.397748 -1.156250
v -0.312500 0.562500 -0.991498
v -0.312500 0.281250 -0.875000
v -0.312500 0.562500 -0.991498
v -0.312500 0.397748 -1.156250
v -0.562500 0.397748 -1.156250
v -0.562500 0.562500 -0.991498
v -0.500000 0.441250 -0.941274
v -0.500000 0.347524 -1.035000
v -0.500000 0.281250 -0.875000
v -0.312500 0.164752 -1.156250
v -0.312500 0.397748 -1.156250
v -0.312500 0.281250 -0.875000
v -0.312500 0.397748 -1.156250
v -0.312500 0.164752 -1.156250
v -0.562500 0.164752 -1.156250
v -0.562500 0.397748 -1.156250
v -0.500000 0.347524 -1.035000
v -0.500000 0.214976 -1.035000
v -0.500000 0.281250 -0.875000
v -0.312500 -0.000000 -0.991498
v -0.312500 0.164752 -1.156250
v -0.312500 0.281250 -0.875000
v -0.312500 0.164752 -1.156250
v -0.312500 -0.000000 -0.991498
v -0.562500 -0.000000 -0.991498
v -0.562500 0.164752 -1.156250
v -0.500000 0.214976 -1.035000
v -0.500000 0.121250 -0.941274
v -0.500000 0.281250 -0.875000
v -0.312500 -0.000000 -0.758502
v -0.312500 -0.000000 -0.991498
v -0.312500 0.281250 -0.875000
v -0.312500 -0.000000 -0.991498
v -0.312500 -0.000000 -0.758502
v -0.562500 -0.000000 -0.758502
v -0.562500 -0.000000 -0.991498
v -0.500000 0.121250 -0.941274
v -0.500000 0.121250 -0.808726
v -0.500000 0.281250 -0.875000
v -0.312500 0.164752 -0.593750
v -0.312500 -0.000000 -0.758502
v -0.312500 0.281250 -0.875000
v -0.312500 -0.000000 -0.758502
v -0.312500 0.164752 -0.593750
v -0.562500 0.164752 -0.593750
v -0.562500 -0.000000 -0.758502
v -0.500000 0.121250 -0.808726
v -0.500000 0.214976 -0.715000
v -0.500000 0.281250 -0.875000
v -0.312500 0.397748 -0.593750
v -0.312500 0.164752 -0.593750
v -0.312500 0.281250 -0.875000
v -0.312500 0.164752 -0.593750
v -0.312500 0.397748 -0.593750
v -0.562500 0.397748 -0.593750
v -0.562500 0.164752 -0.593750
v -0.500000 0.214976 -0.715000
v -0.500000 0.347524 -0.715000
v -0.500000 0.281250 -0.875000
v -0.562500 -0.000000 -0.758502
v -0.562500 0.060625 -0.966386
v -0.562500 0.060625 -0.783614
v -0.562500 -0.000000 -0.991498
v -0.562500 0.164752 -0.593750
v -0.562500 0.060625 -0.783614
v -0.562500 0.189864 -0.654375
v -0.562500 -0.000000 -0.758502
v -0.562500 0.397748 -0.593750
v -0.562500 0.189864 -0.654375
v -0.562500 0.372636 -0.654375
v -0.562500 0.164752 -0.593750
v -0.562500 0.562500 -0.758502
v -0.562500 0.372636 -0.654375
v -0.562500 0.501875 -0.783614
v -0.562500 0.397748 -0.593750
v -0.562500 0.562500 -0.991498
v -0.562500 0.501875 -0.783614
v -0.562500 0.501875 -0.966386
v -0.562500 0.562500 -0.758502
v -0.562500 0.397748 -1.156250
v -0.562500 0.501875 -0.966386
v -0.562500 0.372636 -1.095625
v -0.562500 0.562500 -0.991498
v -0.562500 0.164752 -1.156250
v -0.562500 0.372636 -1.095625
v -0.562500 0.189864 -1.095625
v -0.562500 0.397748 -1.156250
v -0.562500 -0.000000 -0.991498
v -0.562500 0.189864 -1.095625
v -0.562500 0.060625 -0.966386
v -0.562500 0.164752 -1.156250
v -0.500000 0.121250 -0.808726
v -0.500000 0.121250 -0.941274
v -0.562500 0.121250 -0.941274
v -0.562500 0.121250 -0.808726
v -0.500000 0.214976 -0.715000
v -0.500000 0.121250 -0.808726
v -0.562500 0.121250 -0.808726
v -0.562500 0.214976 -0.715000
v -0.500000 0.347524 -0.715000
v -0.500000 0.214976 -0.715000
v -0.562500 0.214976 -0.715000
v -0.562500 0.347524 -0.715000
v -0.500000 0.441250 -0.808726
v -0.500000 0.347524 -0.715000
v -0.562500 0.347524 -0.715000
v -0.562500 0.441250 -0.808726
v -0.500000 0.441250 -0.941274
v -0.500000 0.441250 -0.808726
v -0.562500 0.441250 -0.808726
v -0.562500 0.441250 -0.941274
v -0.500000 0.347524 -1.035000
v -0.500000 0.441250 -0.941274
v -0.562500 0.441250 -0.941274
v -0.562500 0.347524 -1.035000
v -0.500000 0.214976 -1.035000
v -0.500000 0.347524 -1.035000
v -0.562500 0.347524 -1.035000
v -0.562500 0.214976 -1.035000
v -0.500000 0.121250 -0.941274
v -0.500000 0.214976 -1.035000
v -0.562500 0.214976 -1.035000
v -0.562500 0.121250 -0.941274
v -0.562500 0.441250 -0.808726
v -0.562500 0.501875 -0.783614
v -0.562500 0.501875 -0.966386
v -0.562500 0.441250 -0.941274
v -0.562500 0.441250 -0.941274
v -0.562500 0.501875 -0.966386
v -0.562500 0.372636 -1.095625
v -0.562500 0.347524 -1.035000
v -0.562500 0.347524 -1.035000
v -0.562500 0.372636 -1.095625
v -0.562500 0.189864 -1.095625
v -0.562500 0.214976 -1.035000
v -0.562500 0.214976 -1.035000
v -0.562500 0.189864 -1.095625
v -0.562500 0.060625 -0.966386
v -0.562500 0.121250 -0.941274
v -0.562500 0.121250 -0.941274
v -0.562500 0.060625 -0.966386
v -0.562500 0.060625 -0.783614
v -0.562500 0.121250 -0.808726
v -0.562500 0.121250 -0.808726
v -0.562500 0.060625 -0.783614
v -0.562500 0.189864 -0.654375
v -0.562500 0.214976 -0.715000
v -0.562500 0.214976 -0.715000
v -0.562500 0.189864 -0.654375
v -0.562500 0.372636 -0.654375
v -0.562500 0.347524 -0.715000
v -0.562500 0.347524 -0.715000
v -0.562500 0.372636 -0.654375
v -0.562500 0.501875 -0.783614
v -0.562500 0.441250 -0.808726
vn 1.0000 -0.0000 -0.0000
vn -0.0000 0.7071 0.7071
vn -1.0000 -0.0000 -0.0000
vn -0.0000 1.0000 -0.0000
vn -0.0000 0.7071 -0.7071
vn -0.0000 -0.0000 -1.0000
vn -0.0000 -0.7071 -0.7071
vn -0.0000 -1.0000 -0.0000
vn -0.0000 -0.7071 0.7071
vn -0.0000 -0.0000 1.0000
vt 0.398438 0.713781
vt 0.377844 0.734375
vt 0.363281 0.699219
vt 0.000000 0.421875
vt 0.031250 0.421875
vt 0.031250 0.453125
vt 0.000000 0.453125
vt 0.180159 0.835000
vt 0.191875 0.846716
vt 0.171875 0.855000
vt 0.398438 0.684656
vt 0.335938 0.429688
vt 0.367188 0.429688
vt 0.367188 0.460938
vt 0.335938 0.460938
vt 0.191875 0.863284
vt 0.377844 0.664062
vt 0.039062 0.421875
vt 0.070312 0.421875
vt 0.070312 0.453125
vt 0.039062 0.453125
vt 0.180159 0.875000
vt 0.348719 0.664062
vt 0.539062 0.507812
vt 0.570312 0.507812
vt 0.570312 0.539062
vt 0.539062 0.539062
vt 0.163591 0.875000
vt 0.328125 0.684656
vt 0.546875 0.914062
vt 0.578125 0.914062
vt 0.578125 0.945312
vt 0.546875 0.945312
vt 0.151875 0.863284
vt 0.328125 0.713781
vt 0.539062 0.468750
vt 0.570312 0.468750
vt 0.570312 0.500000
vt 0.539062 0.500000
vt 0.151875 0.846716
vt 0.348719 0.734375
vt 0.546875 0.875000
vt 0.578125 0.875000
vt 0.578125 0.906250
vt 0.546875 0.906250
vt 0.163591 0.835000
vt 0.539062 0.429688
vt 0.570312 0.429688
vt 0.570312 0.460938
vt 0.539062 0.460938
vt 0.421875 0.575281
vt 0.429453 0.578420
vt 0.429453 0.601267
vt 0.421875 0.604406
vt 0.442469 0.554688
vt 0.445608 0.562266
vt 0.471594 0.554688
vt 0.468455 0.562266
vt 0.492188 0.575281
vt 0.484609 0.578420
vt 0.492188 0.604406
vt 0.484609 0.601267
vt 0.471594 0.625000
vt 0.468455 0.617422
vt 0.442469 0.625000
vt 0.445608 0.617422
vt 0.148438 0.812500
vt 0.164062 0.812500
vt 0.164062 0.820312
vt 0.148438 0.820312
vt 0.195312 0.953125
vt 0.210938 0.953125
vt 0.210938 0.960938
vt 0.195312 0.960938
vt 0.171875 0.953125
vt 0.187500 0.953125
vt 0.187500 0.960938
vt 0.171875 0.960938
vt 0.218750 0.953125
vt 0.234375 0.953125
vt 0.234375 0.960938
vt 0.218750 0.960938
vt 0.148438 0.953125
vt 0.164062 0.953125
vt 0.164062 0.960938
vt 0.148438 0.960938
vt 0.171875 0.812500
vt 0.187500 0.812500
vt 0.187500 0.820312
vt 0.171875 0.820312
vt 0.117188 0.898438
vt 0.132812 0.898438
vt 0.132812 0.906250
vt 0.117188 0.906250
vt 0.156250 0.750000
vt 0.171875 0.750000
vt 0.171875 0.757812
vt 0.156250 0.757812
vt 0.477031 0.581559
vt 0.477031 0.598128
vt 0.465316 0.609844
vt 0.448747 0.609844
vt 0.437031 0.598128
vt 0.437031 0.581559
vt 0.448747 0.569844
vt 0.465316 0.569844
s 0
usemtl Material_0
f 441/313/33 442/314/33 443/315/33
f 444/316/34 445/317/34 446/318/34
f 444/316/34 446/318/34 447/319/34
f 448/320/35 449/321/35 450/322/35
f 451/323/33 452/313/33 453/315/33
f 454/324/36 455/325/36 456/326/36
f 454/324/36 456/326/36 457/327/36
f 458/321/35 459/328/35 460/322/35
f 461/329/33 462/323/33 463/315/33
f 464/330/37 465/331/37 466/332/37
f 464/330/37 466/332/37 467/333/37
f 468/328/35 469/334/35 470/322/35
f 471/335/33 472/329/33 473/315/33
f 474/336/38 475/337/38 476/338/38
f 474/336/38 476/338/38 477/339/38
f 478/334/35 479/340/35 480/322/35
f 481/341/33 482/335/33 483/315/33
f 484/342/39 485/343/39 486/344/39
f 484/342/39 486/344/39 487/345/39
f 488/340/35 489/346/35 490/322/35
f 491/347/33 492/341/33 493/315/33
f 494/348/40 495/349/40 496/350/40
f 494/348/40 496/350/40 497/351/40
f 498/346/35 499/352/35 500/322/35
f 501/353/33 502/347/33 503/315/33
f 504/354/41 505/355/41 506/356/41
f 504/354/41 506/356/41 507/357/41
f 508/352/35 509/358/35 510/322/35
f 511/314/33 512/353/33 513/315/33
f 514/359/42 515/360/42 516/361/42
f 514/359/42 516/361/42 517/362/42
f 518/358/35 519/320/35 520/322/35
f 521/363/35 523/364/35 522/365/35
f 521/363/35 522/365/35 524/366/35
f 525/367/35 527/368/35 526/364/35
f 525/367/35 526/364/35 528/363/35
f 529/369/35 531/370/35 530/368/35
f 529/369/35 530/368/35 532/367/35
f 533/371/35 535/372/35 534/370/35
f 533/371/35 534/370/35 536/369/35
f 537/373/35 539/374/35 538/372/35
f 537/373/35 538/372/35 540/371/35
f 541/375/35 543/376/35 542/374/35
f 541/375/35 542/374/35 544/373/35
f 545/377/35 547/378/35 546/376/35
f 545/377/35 546/376/35 548/375/35
f 549/366/35 551/365/35 550/378/35
f 549/366/35 550/378/35 552/377/35
f 553/379/36 554/380/36 555/381/36
f 553/379/36 555/381/36 556/382/36
f 557/383/37 558/384/37 559/385/37
f 557/383/37 559/385/37 560/386/37
f 561/387/38 562/388/38 563/389/38
f 561/387/38 563/389/38 564/390/38
f 565/391/39 566/392/39 567/393/39
f 565/391/39 567/393/39 568/394/39
f 569/395/40 570/396/40 571/397/40
f 569/395/40 571/397/40 572/398/40
f 573/399/41 574/400/41 575/401/41
f 573/399/41 575/401/41 576/402/41
f 577/403/42 578/404/42 579/405/42
f 577/403/42 579/405/42 580/406/42
f 581/407/34 582/408/34 583/409/34
f 581/407/34 583/409/34 584/410/34
f 585/411/35 586/372/35 587/374/35
f 585/411/35 587/374/35 588/412/35
f 589/412/35 590/374/35 591/376/35
f 589/412/35 591/376/35 592/413/35
f 593/413/35 594/376/35 595/378/35
f 593/413/35 595/378/35 596/414/35
f 597/414/35 598/378/35 599/365/35
f 597/414/35 599/365/35 600/415/35
f 601/415/35 602/365/35 603/364/35
f 601/415/35 603/364/35 604/416/35
f 605/416/35 606/364/35 607/368/35
f 605/416/35 607/368/35 608/417/35
f 609/417/35 610/368/35 611/370/35
f 609/417/35 611/370/35 612/418/35
f 613/418/35 614/370/35 615/372/35
f 613/418/35 615/372/35 616/411/35
o cylinder.001
v -0.312500 0.562500 0.616498
v -0.312500 0.397748 0.781250
v -0.312500 0.281250 0.500000
v -0.312500 0.397748 0.781250
v -0.312500 0.562500 0.616498
v -0.562500 0.562500 0.616498
v -0.562500 0.397748 0.781250
v -0.500000 0.347524 0.660000
v -0.500000 0.441250 0.566274
v -0.500000 0.281250 0.500000
v -0.312500 0.562500 0.383502
v -0.312500 0.562500 0.616498
v -0.312500 0.281250 0.500000
v -0.312500 0.562500 0.616498
v -0.312500 0.562500 0.383502
v -0.562500 0.562500 0.383502
v -0.562500 0.562500 0.616498
v -0.500000 0.441250 0.566274
v -0.500000 0.441250 0.433726
v -0.500000 0.281250 0.500000
v -0.312500 0.397748 0.218750
v -0.312500 0.562500 0.383502
v -0.312500 0.281250 0.500000
v -0.312500 0.562500 0.383502
v -0.312500 0.397748 0.218750
v -0.562500 0.397748 0.218750
v -0.562500 0.562500 0.383502
v -0.500000 0.441250 0.433726
v -0.500000 0.347524 0.340000
v -0.500000 0.281250 0.500000
v -0.312500 0.164752 0.218750
v -0.312500 0.397748 0.218750
v -0.312500 0.281250 0.500000
v -0.312500 0.397748 0.218750
v -0.312500 0.164752 0.218750
v -0.562500 0.164752 0.218750
v -0.562500 0.397748 0.218750
v -0.500000 0.347524 0.340000
v -0.500000 0.214976 0.340000
v -0.500000 0.281250 0.500000
v -0.312500 -0.000000 0.383502
v -0.312500 0.164752 0.218750
v -0.312500 0.281250 0.500000
v -0.312500 0.164752 0.218750
v -0.312500 -0.000000 0.383502
v -0.562500 -0.000000 0.383502
v -0.562500 0.164752 0.218750
v -0.500000 0.214976 0.340000
v -0.500000 0.121250 0.433726
v -0.500000 0.281250 0.500000
v -0.312500 -0.000000 0.616498
v -0.312500 -0.000000 0.383502
v -0.312500 0.281250 0.500000
v -0.312500 -0.000000 0.383502
v -0.312500 -0.000000 0.616498
v -0.562500 -0.000000 0.616498
v -0.562500 -0.000000 0.383502
v -0.500000 0.121250 0.433726
v -0.500000 0.121250 0.566274
v -0.500000 0.281250 0.500000
v -0.312500 0.164752 0.781250
v -0.312500 -0.000000 0.616498
v -0.312500 0.281250 0.500000
v -0.312500 -0.000000 0.616498
v -0.312500 0.164752 0.781250
v -0.562500 0.164752 0.781250
v -0.562500 -0.000000 0.616498
v -0.500000 0.121250 0.566274
v -0.500000 0.214976 0.660000
v -0.500000 0.281250 0.500000
v -0.312500 0.397748 0.781250
v -0.312500 0.164752 0.781250
v -0.312500 0.281250 0.500000
v -0.312500 0.164752 0.781250
v -0.312500 0.397748 0.781250
v -0.562500 0.397748 0.781250
v -0.562500 0.164752 0.781250
v -0.500000 0.214976 0.660000
v -0.500000 0.347524 0.660000
v -0.500000 0.281250 0.500000
v -0.562500 -0.000000 0.616498
v -0.562500 0.060625 0.408614
v -0.562500 0.060625 0.591386
v -0.562500 -0.000000 0.383502
v -0.562500 0.164752 0.781250
v -0.562500 0.060625 0.591386
v -0.562500 0.189864 0.720625
v -0.562500 -0.000000 0.616498
v -0.562500 0.397748 0.781250
v -0.562500 0.189864 0.720625
v -0.562500 0.372636 0.720625
v -0.562500 0.164752 0.781250
v -0.562500 0.562500 0.616498
v -0.562500 0.372636 0.720625
v -0.562500 0.501875 0.591386
v -0.562500 0.397748 0.781250
v -0.562500 0.562500 0.383502
v -0.562500 0.501875 0.591386
v -0.562500 0.501875 0.408614
v -0.562500 0.562500 0.616498
v -0.562500 0.397748 0.218750
v -0.562500 0.501875 0.408614
v -0.562500 0.372636 0.279375
v -0.562500 0.562500 0.383502
v -0.562500 0.164752 0.218750
v -0.562500 0.372636 0.279375
v -0.562500 0.189864 0.279375
v -0.562500 0.397748 0.218750
v -0.562500 -0.000000 0.383502
v -0.562500 0.189864 0.279375
v -0.562500 0.060625 0.408614
v -0.562500 0.164752 0.218750
v -0.500000 0.121250 0.566274
v -0.500000 0.121250 0.433726
v -0.562500 0.121250 0.433726
v -0.562500 0.121250 0.566274
v -0.500000 0.214976 0.660000
v -0.500000 0.121250 0.566274
v -0.562500 0.121250 0.566274
v -0.562500 0.214976 0.660000
v -0.500000 0.347524 0.660000
v -0.500000 0.214976 0.660000
v -0.562500 0.214976 0.660000
v -0.562500 0.347524 0.660000
v -0.500000 0.441250 0.566274
v -0.500000 0.347524 0.660000
v -0.562500 0.347524 0.660000
v -0.562500 0.441250 0.566274
v -0.500000 0.441250 0.433726
v -0.500000 0.441250 0.566274
v -0.562500 0.441250 0.566274
v -0.562500 0.441250 0.433726
v -0.500000 0.347524 0.340000
v -0.500000 0.441250 0.433726
v -0.562500 0.441250 0.433726
v -0.562500 0.347524 0.340000
v -0.500000 0.214976 0.340000
v -0.500000 0.347524 0.340000
v -0.562500 0.347524 0.340000
v -0.562500 0.214976 0.340000
v -0.500000 0.121250 0.433726
v -0.500000 0.214976 0.340000
v -0.562500 0.214976 0.340000
v -0.562500 0.121250 0.433726
v -0.562500 0.441250 0.566274
v -0.562500 0.501875 0.591386
v -0.562500 0.501875 0.408614
v -0.562500 0.441250 0.433726
v -0.562500 0.441250 0.433726
v -0.562500 0.501875 0.408614
v -0.562500 0.372636 0.279375
v -0.562500 0.347524 0.340000
v -0.562500 0.347524 0.340000
v -0.562500 0.372636 0.279375
v -0.562500 0.189864 0.279375
v -0.562500 0.214976 0.340000
v -0.562500 0.214976 0.340000
v -0.562500 0.189864 0.279375
v -0.562500 0.060625 0.408614
v -0.562500 0.121250 0.433726
v -0.562500 0.121250 0.433726
v -0.562500 0.060625 0.408614
v -0.562500 0.060625 0.591386
v -0.562500 0.121250 0.566274
v -0.562500 0.121250 0.566274
v -0.562500 0.060625 0.591386
v -0.562500 0.189864 0.720625
v -0.562500 0.214976 0.660000
v -0.562500 0.214976 0.660000
v -0.562500 0.189864 0.720625
v -0.562500 0.372636 0.720625
v -0.562500 0.347524 0.660000
v -0.562500 0.347524 0.660000
v -0.562500 0.372636 0.720625
v -0.562500 0.501875 0.591386
v -0.562500 0.441250 0.566274
vn 1.0000 -0.0000 -0.0000
vn -0.0000 0.7071 0.7071
vn -1.0000 -0.0000 -0.0000
vn -0.0000 1.0000 -0.0000
vn -0.0000 0.7071 -0.7071
vn -0.0000 -0.0000 -1.0000
vn -0.0000 -0.7071 -0.7071
vn -0.0000 -1.0000 -0.0000
vn -0.0000 -0.7071 0.7071
vn -0.0000 -0.0000 1.0000
vt 0.375000 0.518469
vt 0.354406 0.539062
vt 0.339844 0.503906
vt 0.585938 0.968750
vt 0.617188 0.968750
vt 0.617188 1.000000
vt 0.585938 1.000000
vt 0.406722 0.428750
vt 0.418438 0.440466
vt 0.398438 0.448750
vt 0.375000 0.489344
vt 0.507812 0.390625
vt 0.539062 0.390625
vt 0.539062 0.421875
vt 0.507812 0.421875
vt 0.418438 0.457034
vt 0.354406 0.468750
vt 0.039062 0.382812
vt 0.070312 0.382812
vt 0.070312 0.414062
vt 0.039062 0.414062
vt 0.406722 0.468750
vt 0.325281 0.468750
vt 0.578125 0.429688
vt 0.609375 0.429688
vt 0.609375 0.460938
vt 0.578125 0.460938
vt 0.390153 0.468750
vt 0.304688 0.489344
vt 0.585938 0.929688
vt 0.617188 0.929688
vt 0.617188 0.960938
vt 0.585938 0.960938
vt 0.378437 0.457034
vt 0.304688 0.518469
vt 0.546875 0.390625
vt 0.578125 0.390625
vt 0.578125 0.421875
vt 0.546875 0.421875
vt 0.378437 0.440466
vt 0.325281 0.539062
vt 0.585938 0.890625
vt 0.617188 0.890625
vt 0.617188 0.921875
vt 0.585938 0.921875
vt 0.390153 0.428750
vt 0.000000 0.382812
vt 0.031250 0.382812
vt 0.031250 0.414062
vt 0.000000 0.414062
vt 0.468750 0.895594
vt 0.476328 0.898733
vt 0.476328 0.921580
vt 0.468750 0.924719
vt 0.489344 0.875000
vt 0.492483 0.882578
vt 0.518469 0.875000
vt 0.515330 0.882578
vt 0.539062 0.895594
vt 0.531484 0.898733
vt 0.539062 0.924719
vt 0.531484 0.921580
vt 0.518469 0.945312
vt 0.515330 0.937734
vt 0.489344 0.945312
vt 0.492483 0.937734
vt 0.523438 0.664062
vt 0.539062 0.664062
vt 0.539062 0.671875
vt 0.523438 0.671875
vt 0.546875 0.585938
vt 0.562500 0.585938
vt 0.562500 0.593750
vt 0.546875 0.593750
vt 0.523438 0.820312
vt 0.539062 0.820312
vt 0.539062 0.828125
vt 0.523438 0.828125
vt 0.117188 0.437500
vt 0.132812 0.437500
vt 0.132812 0.445312
vt 0.117188 0.445312
vt 0.500000 0.570312
vt 0.515625 0.570312
vt 0.515625 0.578125
vt 0.500000 0.578125
vt 0.546875 0.820312
vt 0.562500 0.820312
vt 0.562500 0.828125
vt 0.546875 0.828125
vt 0.500000 0.820312
vt 0.515625 0.820312
vt 0.515625 0.828125
vt 0.500000 0.828125
vt 0.570312 0.742188
vt 0.585938 0.742188
vt 0.585938 0.750000
vt 0.570312 0.750000
vt 0.523906 0.901872
vt 0.523906 0.918441
vt 0.512191 0.930156
vt 0.495622 0.930156
vt 0.483906 0.918441
vt 0.483906 0.901872
vt 0.495622 0.890156
vt 0.512191 0.890156
s 0
usemtl Material_0
f 617/419/43 618/420/43 619/421/43
f 620/422/44 621/423/44 622/424/44
f 620/422/44 622/424/44 623/425/44
f 624/426/45 625/427/45 626/428/45
f 627/429/43 628/419/43 629/421/43
f 630/430/46 631/431/46 632/432/46
f 630/430/46 632/432/46 633/433/46
f 634/427/45 635/434/45 636/428/45
f 637/435/43 638/429/43 639/421/43
f 640/436/47 641/437/47 642/438/47
f 640/436/47 642/438/47 643/439/47
f 644/434/45 645/440/45 646/428/45
f 647/441/43 648/435/43 649/421/43
f 650/442/48 651/443/48 652/444/48
f 650/442/48 652/444/48 653/445/48
f 654/440/45 655/446/45 656/428/45
f 657/447/43 658/441/43 659/421/43
f 660/448/49 661/449/49 662/450/49
f 660/448/49 662/450/49 663/451/49
f 664/446/45 665/452/45 666/428/45
f 667/453/43 668/447/43 669/421/43
f 670/454/50 671/455/50 672/456/50
f 670/454/50 672/456/50 673/457/50
f 674/452/45 675/458/45 676/428/45
f 677/459/43 678/453/43 679/421/43
f 680/460/51 681/461/51 682/462/51
f 680/460/51 682/462/51 683/463/51
f 684/458/45 685/464/45 686/428/45
f 687/420/43 688/459/43 689/421/43
f 690/465/52 691/466/52 692/467/52
f 690/465/52 692/467/52 693/468/52
f 694/464/45 695/426/45 696/428/45
f 697/469/45 699/470/45 698/471/45
f 697/469/45 698/471/45 700/472/45
f 701/473/45 703/474/45 702/470/45
f 701/473/45 702/470/45 704/469/45
f 705/475/45 707/476/45 706/474/45
f 705/475/45 706/474/45 708/473/45
f 709/477/45 711/478/45 710/476/45
f 709/477/45 710/476/45 712/475/45
f 713/479/45 715/480/45 714/478/45
f 713/479/45 714/478/45 716/477/45
f 717/481/45 719/482/45 718/480/45
f 717/481/45 718/480/45 720/479/45
f 721/483/45 723/484/45 722/482/45
f 721/483/45 722/482/45 724/481/45
f 725/472/45 727/471/45 726/484/45
f 725/472/45 726/484/45 728/483/45
f 729/485/46 730/486/46 731/487/46
f 729/485/46 731/487/46 732/488/46
f 733/489/47 734/490/47 735/491/47
f 733/489/47 735/491/47 736/492/47
f 737/493/48 738/494/48 739/495/48
f 737/493/48 739/495/48 740/496/48
f 741/497/49 742/498/49 743/499/49
f 741/497/49 743/499/49 744/500/49
f 745/501/50 746/502/50 747/503/50
f 745/501/50 747/503/50 748/504/50
f 749/505/51 750/506/51 751/507/51
f 749/505/51 751/507/51 752/508/51
f 753/509/52 754/510/52 755/511/52
f 753/509/52 755/511/52 756/512/52
f 757/513/44 758/514/44 759/515/44
f 757/513/44 759/515/44 760/516/44
f 761/517/45 762/478/45 763/480/45
f 761/517/45 763/480/45 764/518/45
f 765/518/45 766/480/45 767/482/45
f 765/518/45 767/482/45 768/519/45
f 769/519/45 770/482/45 771/484/45
f 769/519/45 771/484/45 772/520/45
f 773/520/45 774/484/45 775/471/45
f 773/520/45 775/471/45 776/521/45
f 777/521/45 778/471/45 779/470/45
f 777/521/45 779/470/45 780/522/45
f 781/522/45 782/470/45 783/474/45
f 781/522/45 783/474/45 784/523/45
f 785/523/45 786/474/45 787/476/45
f 785/523/45 787/476/45 788/524/45
f 789/524/45 790/476/45 791/478/45
f 789/524/45 791/478/45 792/517/45
o cylinder.002
v 0.312500 0.397748 0.781250
v 0.312500 0.562500 0.616498
v 0.312500 0.281250 0.500000
v 0.312500 0.562500 0.616498
v 0.312500 0.397748 0.781250
v 0.562500 0.562500 0.616498
v 0.562500 0.397748 0.781250
v 0.500000 0.441250 0.566274
v 0.500000 0.347524 0.660000
v 0.500000 0.281250 0.500000
v 0.312500 0.562500 0.616498
v 0.312500 0.562500 0.383502
v 0.312500 0.281250 0.500000
v 0.312500 0.562500 0.383502
v 0.312500 0.562500 0.616498
v 0.562500 0.562500 0.383502
v 0.562500 0.562500 0.616498
v 0.500000 0.441250 0.433726
v 0.500000 0.441250 0.566274
v 0.500000 0.281250 0.500000
v 0.312500 0.562500 0.383502
v 0.312500 0.397748 0.218750
v 0.312500 0.281250 0.500000
v 0.312500 0.397748 0.218750
v 0.312500 0.562500 0.383502
v 0.562500 0.397748 0.218750
v 0.562500 0.562500 0.383502
v 0.500000 0.347524 0.340000
v 0.500000 0.441250 0.433726
v 0.500000 0.281250 0.500000
v 0.312500 0.397748 0.218750
v 0.312500 0.164752 0.218750
v 0.312500 0.281250 0.500000
v 0.312500 0.164752 0.218750
v 0.312500 0.397748 0.218750
v 0.562500 0.164752 0.218750
v 0.562500 0.397748 0.218750
v 0.500000 0.214976 0.340000
v 0.500000 0.347524 0.340000
v 0.500000 0.281250 0.500000
v 0.312500 0.164752 0.218750
v 0.312500 -0.000000 0.383502
v 0.312500 0.281250 0.500000
v 0.312500 -0.000000 0.383502
v 0.312500 0.164752 0.218750
v 0.562500 -0.000000 0.383502
v 0.562500 0.164752 0.218750
v 0.500000 0.121250 0.433726
v 0.500000 0.214976 0.340000
v 0.500000 0.281250 0.500000
v 0.312500 -0.000000 0.383502
v 0.312500 -0.000000 0.616498
v 0.312500 0.281250 0.500000
v 0.312500 -0.000000 0.616498
v 0.312500 -0.000000 0.383502
v 0.562500 -0.000000 0.616498
v 0.562500 -0.000000 0.383502
v 0.500000 0.121250 0.566274
v 0.500000 0.121250 0.433726
v 0.500000 0.281250 0.500000
v 0.312500 -0.000000 0.616498
v 0.312500 0.164752 0.781250
v 0.312500 0.281250 0.500000
v 0.312500 0.164752 0.781250
v 0.312500 -0.000000 0.616498
v 0.562500 0.164752 0.781250
v 0.562500 -0.000000 0.616498
v 0.500000 0.214976 0.660000
v 0.500000 0.121250 0.566274
v 0.500000 0.281250 0.500000
v 0.312500 0.164752 0.781250
v 0.312500 0.397748 0.781250
v 0.312500 0.281250 0.500000
v 0.312500 0.397748 0.781250
v 0.312500 0.164752 0.781250
v 0.562500 0.397748 0.781250
v 0.562500 0.164752 0.781250
v 0.500000 0.347524 0.660000
v 0.500000 0.214976 0.660000
v 0.500000 0.281250 0.500000
v 0.562500 0.121250 0.566274
v 0.562500 0.060625 0.408614
v 0.562500 0.060625 0.591386
v 0.562500 0.121250 0.433726
v 0.562500 0.214976 0.660000
v 0.562500 0.060625 0.591386
v 0.562500 0.189864 0.720625
v 0.562500 0.121250 0.566274
v 0.562500 0.347524 0.660000
v 0.562500 0.189864 0.720625
v 0.562500 0.372636 0.720625
v 0.562500 0.214976 0.660000
v 0.562500 0.441250 0.566274
v 0.562500 0.372636 0.720625
v 0.562500 0.501875 0.591386
v 0.562500 0.347524 0.660000
v 0.562500 0.441250 0.433726
v 0.562500 0.501875 0.591386
v 0.562500 0.501875 0.408614
v 0.562500 0.441250 0.566274
v 0.562500 0.347524 0.340000
v 0.562500 0.501875 0.408614
v 0.562500 0.372636 0.279375
v 0.562500 0.441250 0.433726
v 0.562500 0.214976 0.340000
v 0.562500 0.372636 0.279375
v 0.562500 0.189864 0.279375
v 0.562500 0.347524 0.340000
v 0.562500 0.121250 0.433726
v 0.562500 0.189864 0.279375
v 0.562500 0.060625 0.408614
v 0.562500 0.214976 0.340000
v 0.500000 0.121250 0.433726
v 0.500000 0.121250 0.566274
v 0.562500 0.121250 0.433726
v 0.562500 0.121250 0.566274
v 0.500000 0.121250 0.566274
v 0.500000 0.214976 0.660000
v 0.562500 0.121250 0.566274
v 0.562500 0.214976 0.660000
v 0.500000 0.214976 0.660000
v 0.500000 0.347524 0.660000
v 0.562500 0.214976 0.660000
v 0.562500 0.347524 0.660000
v 0.500000 0.347524 0.660000
v 0.500000 0.441250 0.566274
v 0.562500 0.347524 0.660000
v 0.562500 0.441250 0.566274
v 0.500000 0.441250 0.566274
v 0.500000 0.441250 0.433726
v 0.562500 0.441250 0.566274
v 0.562500 0.441250 0.433726
v 0.500000 0.441250 0.433726
v 0.500000 0.347524 0.340000
v 0.562500 0.441250 0.433726
v 0.562500 0.347524 0.340000
v 0.500000 0.347524 0.340000
v 0.500000 0.214976 0.340000
v 0.562500 0.347524 0.340000
v 0.562500 0.214976 0.340000
v 0.500000 0.214976 0.340000
v 0.500000 0.121250 0.433726
v 0.562500 0.214976 0.340000
v 0.562500 0.121250 0.433726
v 0.562500 0.562500 0.383502
v 0.562500 0.501875 0.408614
v 0.562500 0.372636 0.279375
v 0.562500 0.397748 0.218750
v 0.562500 0.397748 0.218750
v 0.562500 0.372636 0.279375
v 0.562500 0.189864 0.279375
v 0.562500 0.164752 0.218750
v 0.562500 0.164752 0.218750
v 0.562500 0.189864 0.279375
v 0.562500 0.060625 0.408614
v 0.562500 -0.000000 0.383502
v 0.562500 -0.000000 0.383502
v 0.562500 0.060625 0.408614
v 0.562500 0.060625 0.591386
v 0.562500 -0.000000 0.616498
v 0.562500 -0.000000 0.616498
v 0.562500 0.060625 0.591386
v 0.562500 0.189864 0.720625
v 0.562500 0.164752 0.781250
v 0.562500 0.164752 0.781250
v 0.562500 0.189864 0.720625
v 0.562500 0.372636 0.720625
v 0.562500 0.397748 0.781250
v 0.562500 0.397748 0.781250
v 0.562500 0.372636 0.720625
v 0.562500 0.501875 0.591386
v 0.562500 0.562500 0.616498
v 0.562500 0.562500 0.616498
v 0.562500 0.501875 0.591386
v 0.562500 0.501875 0.408614
v 0.562500 0.562500 0.383502
vn -1.0000 -0.0000 -0.0000
vn -0.0000 0.7071 0.7071
vn 1.0000 -0.0000 -0.0000
vn -0.0000 1.0000 -0.0000
vn -0.0000 0.7071 -0.7071
vn -0.0000 -0.0000 -1.0000
vn -0.0000 -0.7071 -0.7071
vn -0.0000 -1.0000 -0.0000
vn -0.0000 -0.7071 0.7071
vn -0.0000 -0.0000 1.0000
vt 0.465906 0.734375
vt 0.445312 0.713781
vt 0.480469 0.699219
vt 0.570312 0.828125
vt 0.570312 0.796875
vt 0.601562 0.796875
vt 0.601562 0.828125
vt 0.487812 0.448278
vt 0.499528 0.436563
vt 0.507812 0.456563
vt 0.445312 0.684656
vt 0.546875 0.671875
vt 0.546875 0.640625
vt 0.578125 0.640625
vt 0.578125 0.671875
vt 0.487812 0.464847
vt 0.465906 0.664062
vt 0.570312 0.789062
vt 0.570312 0.757812
vt 0.601562 0.757812
vt 0.601562 0.789062
vt 0.499528 0.476562
vt 0.495031 0.664062
vt 0.546875 0.632812
vt 0.546875 0.601562
vt 0.578125 0.601562
vt 0.578125 0.632812
vt 0.516097 0.476562
vt 0.515625 0.684656
vt 0.429688 0.429688
vt 0.429688 0.398438
vt 0.460938 0.398438
vt 0.460938 0.429688
vt 0.527812 0.464847
vt 0.515625 0.713781
vt 0.078125 0.445312
vt 0.078125 0.414062
vt 0.109375 0.414062
vt 0.109375 0.445312
vt 0.527812 0.448278
vt 0.495031 0.734375
vt 0.117188 0.421875
vt 0.117188 0.390625
vt 0.148438 0.390625
vt 0.148438 0.421875
vt 0.516097 0.436563
vt 0.570312 0.867188
vt 0.570312 0.835938
vt 0.601562 0.835938
vt 0.601562 0.867188
vt 0.469219 0.503434
vt 0.476797 0.500295
vt 0.476797 0.523142
vt 0.469219 0.520003
vt 0.457503 0.491719
vt 0.460642 0.484141
vt 0.440934 0.491719
vt 0.437795 0.484141
vt 0.429219 0.503434
vt 0.421641 0.500295
vt 0.429219 0.520003
vt 0.421641 0.523142
vt 0.440934 0.531719
vt 0.437795 0.539297
vt 0.457503 0.531719
vt 0.460642 0.539297
vt 0.273438 0.875000
vt 0.273438 0.867188
vt 0.289062 0.867188
vt 0.289062 0.875000
vt 0.320312 0.757812
vt 0.320312 0.750000
vt 0.335938 0.750000
vt 0.335938 0.757812
vt 0.250000 0.875000
vt 0.250000 0.867188
vt 0.265625 0.867188
vt 0.265625 0.875000
vt 0.343750 0.757812
vt 0.343750 0.750000
vt 0.359375 0.750000
vt 0.359375 0.757812
vt 0.000000 0.750000
vt 0.000000 0.742188
vt 0.015625 0.742188
vt 0.015625 0.750000
vt 0.296875 0.875000
vt 0.296875 0.867188
vt 0.312500 0.867188
vt 0.312500 0.875000
vt 0.179688 0.757812
vt 0.179688 0.750000
vt 0.195312 0.750000
vt 0.195312 0.757812
vt 0.000000 0.648438
vt 0.000000 0.640625
vt 0.015625 0.640625
vt 0.015625 0.648438
vt 0.414062 0.526281
vt 0.434656 0.546875
vt 0.463781 0.546875
vt 0.484375 0.526281
vt 0.484375 0.497156
vt 0.463781 0.476562
vt 0.434656 0.476562
vt 0.414062 0.497156
s 0
usemtl Material_0
f 793/525/53 794/526/53 795/527/53
f 798/528/54 796/529/54 797/530/54
f 798/528/54 797/530/54 799/531/54
f 800/532/55 801/533/55 802/534/55
f 803/526/53 804/535/53 805/527/53
f 808/536/56 806/537/56 807/538/56
f 808/536/56 807/538/56 809/539/56
f 810/540/55 811/532/55 812/534/55
f 813/535/53 814/541/53 815/527/53
f 818/542/57 816/543/57 817/544/57
f 818/542/57 817/544/57 819/545/57
f 820/546/55 821/540/55 822/534/55
f 823/541/53 824/547/53 825/527/53
f 828/548/58 826/549/58 827/550/58
f 828/548/58 827/550/58 829/551/58
f 830/552/55 831/546/55 832/534/55
f 833/547/53 834/553/53 835/527/53
f 838/554/59 836/555/59 837/556/59
f 838/554/59 837/556/59 839/557/59
f 840/558/55 841/552/55 842/534/55
f 843/553/53 844/559/53 845/527/53
f 848/560/60 846/561/60 847/562/60
f 848/560/60 847/562/60 849/563/60
f 850/564/55 851/558/55 852/534/55
f 853/559/53 854/565/53 855/527/53
f 858/566/61 856/567/61 857/568/61
f 858/566/61 857/568/61 859/569/61
f 860/570/55 861/564/55 862/534/55
f 863/565/53 864/525/53 865/527/53
f 868/571/62 866/572/62 867/573/62
f 868/571/62 867/573/62 869/574/62
f 870/533/55 871/570/55 872/534/55
f 873/575/55 875/576/55 874/577/55
f 873/575/55 874/577/55 876/578/55
f 877/579/55 879/580/55 878/576/55
f 877/579/55 878/576/55 880/575/55
f 881/581/55 883/582/55 882/580/55
f 881/581/55 882/580/55 884/579/55
f 885/583/55 887/584/55 886/582/55
f 885/583/55 886/582/55 888/581/55
f 889/585/55 891/586/55 890/584/55
f 889/585/55 890/584/55 892/583/55
f 893/587/55 895/588/55 894/586/55
f 893/587/55 894/586/55 896/585/55
f 897/589/55 899/590/55 898/588/55
f 897/589/55 898/588/55 900/587/55
f 901/578/55 903/577/55 902/590/55
f 901/578/55 902/590/55 904/589/55
f 907/591/56 905/592/56 906/593/56
f 907/591/56 906/593/56 908/594/56
f 911/595/57 909/596/57 910/597/57
f 911/595/57 910/597/57 912/598/57
f 915/599/58 913/600/58 914/601/58
f 915/599/58 914/601/58 916/602/58
f 919/603/59 917/604/59 918/605/59
f 919/603/59 918/605/59 920/606/59
f 923/607/60 921/608/60 922/609/60
f 923/607/60 922/609/60 924/610/60
f 927/611/61 925/612/61 926/613/61
f 927/611/61 926/613/61 928/614/61
f 931/615/62 929/616/62 930/617/62
f 931/615/62 930/617/62 932/618/62
f 935/619/54 933/620/54 934/621/54
f 935/619/54 934/621/54 936/622/54
f 937/623/55 938/586/55 939/588/55
f 937/623/55 939/588/55 940/624/55
f 941/624/55 942/588/55 943/590/55
f 941/624/55 943/590/55 944/625/55
f 945/625/55 946/590/55 947/577/55
f 945/625/55 947/577/55 948/626/55
f 949/626/55 950/577/55 951/576/55
f 949/626/55 951/576/55 952/627/55
f 953/627/55 954/576/55 955/580/55
f 953/627/55 955/580/55 956/628/55
f 957/628/55 958/580/55 959/582/55
f 957/628/55 959/582/55 960/629/55
f 961/629/55 962/582/55 963/584/55
f 961/629/55 963/584/55 964/630/55
f 965/630/55 966/584/55 967/586/55
f 965/630/55 967/586/55 968/623/55
o cylinder.003
v 0.312500 0.397748 -0.593750
v 0.312500 0.562500 -0.758502
v 0.312500 0.281250 -0.875000
v 0.312500 0.562500 -0.758502
v 0.312500 0.397748 -0.593750
v 0.562500 0.562500 -0.758502
v 0.562500 0.397748 -0.593750
v 0.500000 0.441250 -0.808726
v 0.500000 0.347524 -0.715000
v 0.500000 0.281250 -0.875000
v 0.312500 0.562500 -0.758502
v 0.312500 0.562500 -0.991498
v 0.312500 0.281250 -0.875000
v 0.312500 0.562500 -0.991498
v 0.312500 0.562500 -0.758502
v 0.562500 0.562500 -0.991498
v 0.562500 0.562500 -0.758502
v 0.500000 0.441250 -0.941274
v 0.500000 0.441250 -0.808726
v 0.500000 0.281250 -0.875000
v 0.312500 0.562500 -0.991498
v 0.312500 0.397748 -1.156250
v 0.312500 0.281250 -0.875000
v 0.312500 0.397748 -1.156250
v 0.312500 0.562500 -0.991498
v 0.562500 0.397748 -1.156250
v 0.562500 0.562500 -0.991498
v 0.500000 0.347524 -1.035000
v 0.500000 0.441250 -0.941274
v 0.500000 0.281250 -0.875000
v 0.312500 0.397748 -1.156250
v 0.312500 0.164752 -1.156250
v 0.312500 0.281250 -0.875000
v 0.312500 0.164752 -1.156250
v 0.312500 0.397748 -1.156250
v 0.562500 0.164752 -1.156250
v 0.562500 0.397748 -1.156250
v 0.500000 0.214976 -1.035000
v 0.500000 0.347524 -1.035000
v 0.500000 0.281250 -0.875000
v 0.312500 0.164752 -1.156250
v 0.312500 -0.000000 -0.991498
v 0.312500 0.281250 -0.875000
v 0.312500 -0.000000 -0.991498
v 0.312500 0.164752 -1.156250
v 0.562500 -0.000000 -0.991498
v 0.562500 0.164752 -1.156250
v 0.500000 0.121250 -0.941274
v 0.500000 0.214976 -1.035000
v 0.500000 0.281250 -0.875000
v 0.312500 -0.000000 -0.991498
v 0.312500 -0.000000 -0.758502
v 0.312500 0.281250 -0.875000
v 0.312500 -0.000000 -0.758502
v 0.312500 -0.000000 -0.991498
v 0.562500 -0.000000 -0.758502
v 0.562500 -0.000000 -0.991498
v 0.500000 0.121250 -0.808726
v 0.500000 0.121250 -0.941274
v 0.500000 0.281250 -0.875000
v 0.312500 -0.000000 -0.758502
v 0.312500 0.164752 -0.593750
v 0.312500 0.281250 -0.875000
v 0.312500 0.164752 -0.593750
v 0.312500 -0.000000 -0.758502
v 0.562500 0.164752 -0.593750
v 0.562500 -0.000000 -0.758502
v 0.500000 0.214976 -0.715000
v 0.500000 0.121250 -0.808726
v 0.500000 0.281250 -0.875000
v 0.312500 0.164752 -0.593750
v 0.312500 0.397748 -0.593750
v 0.312500 0.281250 -0.875000
v 0.312500 0.397748 -0.593750
v 0.312500 0.164752 -0.593750
v 0.562500 0.397748 -0.593750
v 0.562500 0.164752 -0.593750
v 0.500000 0.347524 -0.715000
v 0.500000 0.214976 -0.715000
v 0.500000 0.281250 -0.875000
v 0.562500 0.121250 -0.808726
v 0.562500 0.060625 -0.966386
v 0.562500 0.060625 -0.783614
v 0.562500 0.121250 -0.941274
v 0.562500 0.214976 -0.715000
v 0.562500 0.060625 -0.783614
v 0.562500 0.189864 -0.654375
v 0.562500 0.121250 -0.808726
v 0.562500 0.347524 -0.715000
v 0.562500 0.189864 -0.654375
v 0.562500 0.372636 -0.654375
v 0.562500 0.214976 -0.715000
v 0.562500 0.441250 -0.808726
v 0.562500 0.372636 -0.654375
v 0.562500 0.501875 -0.783614
v 0.562500 0.347524 -0.715000
v 0.562500 0.441250 -0.941274
v 0.562500 0.501875 -0.783614
v 0.562500 0.501875 -0.966386
v 0.562500 0.441250 -0.808726
v 0.562500 0.347524 -1.035000
v 0.562500 0.501875 -0.966386
v 0.562500 0.372636 -1.095625
v 0.562500 0.441250 -0.941274
v 0.562500 0.214976 -1.035000
v 0.562500 0.372636 -1.095625
v 0.562500 0.189864 -1.095625
v 0.562500 0.347524 -1.035000
v 0.562500 0.121250 -0.941274
v 0.562500 0.189864 -1.095625
v 0.562500 0.060625 -0.966386
v 0.562500 0.214976 -1.035000
v 0.500000 0.121250 -0.941274
v 0.500000 0.121250 -0.808726
v 0.562500 0.121250 -0.941274
v 0.562500 0.121250 -0.808726
v 0.500000 0.121250 -0.808726
v 0.500000 0.214976 -0.715000
v 0.562500 0.121250 -0.808726
v 0.562500 0.214976 -0.715000
v 0.500000 0.214976 -0.715000
v 0.500000 0.347524 -0.715000
v 0.562500 0.214976 -0.715000
v 0.562500 0.347524 -0.715000
v 0.500000 0.347524 -0.715000
v 0.500000 0.441250 -0.808726
v 0.562500 0.347524 -0.715000
v 0.562500 0.441250 -0.808726
v 0.500000 0.441250 -0.808726
v 0.500000 0.441250 -0.941274
v 0.562500 0.441250 -0.808726
v 0.562500 0.441250 -0.941274
v 0.500000 0.441250 -0.941274
v 0.500000 0.347524 -1.035000
v 0.562500 0.441250 -0.941274
v 0.562500 0.347524 -1.035000
v 0.500000 0.347524 -1.035000
v 0.500000 0.214976 -1.035000
v 0.562500 0.347524 -1.035000
v 0.562500 0.214976 -1.035000
v 0.500000 0.214976 -1.035000
v 0.500000 0.121250 -0.941274
v 0.562500 0.214976 -1.035000
v 0.562500 0.121250 -0.941274
v 0.562500 0.397748 -0.593750
v 0.562500 0.372636 -0.654375
v 0.562500 0.501875 -0.783614
v 0.562500 0.562500 -0.758502
v 0.562500 0.562500 -0.758502
v 0.562500 0.501875 -0.783614
v 0.562500 0.501875 -0.966386
v 0.562500 0.562500 -0.991498
v 0.562500 0.562500 -0.991498
v 0.562500 0.501875 -0.966386
v 0.562500 0.372636 -1.095625
v 0.562500 0.397748 -1.156250
v 0.562500 0.397748 -1.156250
v 0.562500 0.372636 -1.095625
v 0.562500 0.189864 -1.095625
v 0.562500 0.164752 -1.156250
v 0.562500 0.164752 -1.156250
v 0.562500 0.189864 -1.095625
v 0.562500 0.060625 -0.966386
v 0.562500 -0.000000 -0.991498
v 0.562500 -0.000000 -0.991498
v 0.562500 0.060625 -0.966386
v 0.562500 0.060625 -0.783614
v 0.562500 -0.000000 -0.758502
v 0.562500 -0.000000 -0.758502
v 0.562500 0.060625 -0.783614
v 0.562500 0.189864 -0.654375
v 0.562500 0.164752 -0.593750
v 0.562500 0.164752 -0.593750
v 0.562500 0.189864 -0.654375
v 0.562500 0.372636 -0.654375
v 0.562500 0.397748 -0.593750
vn -1.0000 -0.0000 -0.0000
vn -0.0000 0.7071 0.7071
vn 1.0000 -0.0000 -0.0000
vn -0.0000 1.0000 -0.0000
vn -0.0000 0.7071 -0.7071
vn -0.0000 -0.0000 -1.0000
vn -0.0000 -0.7071 -0.7071
vn -0.0000 -1.0000 -0.0000
vn -0.0000 -0.7071 0.7071
vn -0.0000 -0.0000 1.0000
vt 0.169031 0.539062
vt 0.148438 0.518469
vt 0.183594 0.503906
vt 0.312500 0.421875
vt 0.312500 0.390625
vt 0.343750 0.390625
vt 0.343750 0.421875
vt 0.534688 0.971716
vt 0.546403 0.960000
vt 0.554688 0.980000
vt 0.148438 0.489344
vt 0.156250 0.421875
vt 0.156250 0.390625
vt 0.187500 0.390625
vt 0.187500 0.421875
vt 0.534688 0.988284
vt 0.169031 0.468750
vt 0.578125 0.539062
vt 0.578125 0.507812
vt 0.609375 0.507812
vt 0.609375 0.539062
vt 0.546403 1.000000
vt 0.198156 0.468750
vt 0.195312 0.421875
vt 0.195312 0.390625
vt 0.226562 0.390625
vt 0.226562 0.421875
vt 0.562972 1.000000
vt 0.218750 0.489344
vt 0.468750 0.421875
vt 0.468750 0.390625
vt 0.500000 0.390625
vt 0.500000 0.421875
vt 0.574687 0.988284
vt 0.218750 0.518469
vt 0.234375 0.421875
vt 0.234375 0.390625
vt 0.265625 0.390625
vt 0.265625 0.421875
vt 0.574687 0.971716
vt 0.198156 0.539062
vt 0.578125 0.500000
vt 0.578125 0.468750
vt 0.609375 0.468750
vt 0.609375 0.500000
vt 0.562972 0.960000
vt 0.273438 0.421875
vt 0.273438 0.390625
vt 0.304688 0.390625
vt 0.304688 0.421875
vt 0.281719 0.495622
vt 0.289297 0.492483
vt 0.289297 0.515330
vt 0.281719 0.512191
vt 0.270003 0.483906
vt 0.273142 0.476328
vt 0.253434 0.483906
vt 0.250295 0.476328
vt 0.241719 0.495622
vt 0.234141 0.492483
vt 0.241719 0.512191
vt 0.234141 0.515330
vt 0.253434 0.523906
vt 0.250295 0.531484
vt 0.270003 0.523906
vt 0.273142 0.531484
vt 0.093750 0.648438
vt 0.093750 0.640625
vt 0.109375 0.640625
vt 0.109375 0.648438
vt 0.359375 0.898438
vt 0.359375 0.890625
vt 0.375000 0.890625
vt 0.375000 0.898438
vt 0.070312 0.648438
vt 0.070312 0.640625
vt 0.085938 0.640625
vt 0.085938 0.648438
vt 0.382812 0.898438
vt 0.382812 0.890625
vt 0.398438 0.890625
vt 0.398438 0.898438
vt 0.046875 0.648438
vt 0.046875 0.640625
vt 0.062500 0.640625
vt 0.062500 0.648438
vt 0.117188 0.648438
vt 0.117188 0.640625
vt 0.132812 0.640625
vt 0.132812 0.648438
vt 0.023438 0.648438
vt 0.023438 0.640625
vt 0.039062 0.640625
vt 0.039062 0.648438
vt 0.476562 0.828125
vt 0.476562 0.820312
vt 0.492188 0.820312
vt 0.492188 0.828125
vt 0.247156 0.468750
vt 0.226562 0.489344
vt 0.226562 0.518469
vt 0.247156 0.539062
vt 0.276281 0.539062
vt 0.296875 0.518469
vt 0.296875 0.489344
vt 0.276281 0.468750
s 0
usemtl Material_0
f 969/631/63 970/632/63 971/633/63
f 974/634/64 972/635/64 973/636/64
f 974/634/64 973/636/64 975/637/64
f 976/638/65 977/639/65 978/640/65
f 979/632/63 980/641/63 981/633/63
f 984/642/66 982/643/66 983/644/66
f 984/642/66 983/644/66 985/645/66
f 986/646/65 987/638/65 988/640/65
f 989/641/63 990/647/63 991/633/63
f 994/648/67 992/649/67 993/650/67
f 994/648/67 993/650/67 995/651/67
f 996/652/65 997/646/65 998/640/65
f 999/647/63 1000/653/63 1001/633/63
f 1004/654/68 1002/655/68 1003/656/68
f 1004/654/68 1003/656/68 1005/657/68
f 1006/658/65 1007/652/65 1008/640/65
f 1009/653/63 1010/659/63 1011/633/63
f 1014/660/69 1012/661/69 1013/662/69
f 1014/660/69 1013/662/69 1015/663/69
f 1016/664/65 1017/658/65 1018/640/65
f 1019/659/63 1020/665/63 1021/633/63
f 1024/666/70 1022/667/70 1023/668/70
f 1024/666/70 1023/668/70 1025/669/70
f 1026/670/65 1027/664/65 1028/640/65
f 1029/665/63 1030/671/63 1031/633/63
f 1034/672/71 1032/673/71 1033/674/71
f 1034/672/71 1033/674/71 1035/675/71
f 1036/676/65 1037/670/65 1038/640/65
f 1039/671/63 1040/631/63 1041/633/63
f 1044/677/72 1042/678/72 1043/679/72
f 1044/677/72 1043/679/72 1045/680/72
f 1046/639/65 1047/676/65 1048/640/65
f 1049/681/65 1051/682/65 1050/683/65
f 1049/681/65 1050/683/65 1052/684/65
f 1053/685/65 1055/686/65 1054/682/65
f 1053/685/65 1054/682/65 1056/681/65
f 1057/687/65 1059/688/65 1058/686/65
f 1057/687/65 1058/686/65 1060/685/65
f 1061/689/65 1063/690/65 1062/688/65
f 1061/689/65 1062/688/65 1064/687/65
f 1065/691/65 1067/692/65 1066/690/65
f 1065/691/65 1066/690/65 1068/689/65
f 1069/693/65 1071/694/65 1070/692/65
f 1069/693/65 1070/692/65 1072/691/65
f 1073/695/65 1075/696/65 1074/694/65
f 1073/695/65 1074/694/65 1076/693/65
f 1077/684/65 1079/683/65 1078/696/65
f 1077/684/65 1078/696/65 1080/695/65
f 1083/697/66 1081/698/66 1082/699/66
f 1083/697/66 1082/699/66 1084/700/66
f 1087/701/67 1085/702/67 1086/703/67
f 1087/701/67 1086/703/67 1088/704/67
f 1091/705/68 1089/706/68 1090/707/68
f 1091/705/68 1090/707/68 1092/708/68
f 1095/709/69 1093/710/69 1094/711/69
f 1095/709/69 1094/711/69 1096/712/69
f 1099/713/70 1097/714/70 1098/715/70
f 1099/713/70 1098/715/70 1100/716/70
f 1103/717/71 1101/718/71 1102/719/71
f 1103/717/71 1102/719/71 1104/720/71
f 1107/721/72 1105/722/72 1106/723/72
f 1107/721/72 1106/723/72 1108/724/72
f 1111/725/64 1109/726/64 1110/727/64
f 1111/725/64 1110/727/64 1112/728/64
f 1113/729/65 1114/688/65 1115/690/65
f 1113/729/65 1115/690/65 1116/730/65
f 1117/730/65 1118/690/65 1119/692/65
f 1117/730/65 1119/692/65 1120/731/65
f 1121/731/65 1122/692/65 1123/694/65
f 1121/731/65 1123/694/65 1124/732/65
f 1125/732/65 1126/694/65 1127/696/65
f 1125/732/65 1127/696/65 1128/733/65
f 1129/733/65 1130/696/65 1131/683/65
f 1129/733/65 1131/683/65 1132/734/65
f 1133/734/65 1134/683/65 1135/682/65
f 1133/734/65 1135/682/65 1136/735/65
f 1137/735/65 1138/682/65 1139/686/65
f 1137/735/65 1139/686/65 1140/736/65
f 1141/736/65 1142/686/65 1143/688/65
f 1141/736/65 1143/688/65 1144/729/65
